<svg viewBox="0 0 24 24" fill="none" xmlns="http://www.w3.org/2000/svg">
  <path
    d="M14 2H6C5.46957 2 4.96086 2.21071 4.58579 2.58579C4.21071 2.96086 4 3.46957 4 4V20C4 20.5304 4.21071 21.0391 4.58579 21.4142C4.96086 21.7893 5.46957 22 6 22H18C18.5304 22 19.0391 21.7893 19.4142 21.4142C19.7893 21.0391 20 20.5304 20 20V8L14 2Z"
    stroke="currentColor" stroke-width="2" stroke-linecap="round" stroke-linejoin="round" />
  <path d="M14 2V8H20" stroke="currentColor" stroke-width="2" stroke-linecap="round"
    stroke-linejoin="round" />
  <path
    d="M12 18.5858C12 15.4616 12 12.5858 12 12.5858M8.5 15.0858L11.2929 12.2929C11.6834 11.9024 12.3166 11.9024 12.7071 12.2929L15.5 15.0858"
    stroke="currentColor" stroke-width="2" stroke-linecap="round" />
</svg>