<?xml version="1.0" encoding="UTF-8"?>
<svg id="Layer_1" xmlns="http://www.w3.org/2000/svg" version="1.1" viewBox="0 0 24 24">
  <!-- Generator: Adobe Illustrator 29.2.1, SVG Export Plug-In . SVG Version: 2.1.0 Build 116)  -->
  <defs>
    
  </defs>
  <path fill="currentColor" d="M17.013,3.261h-3.036c-.047,0-.085-.038-.085-.085v-.833c0-.187-.152-.339-.339-.339h-3.418c-.187,0-.339.152-.339.339v.833c0,.047-.038.085-.085.085h-3.036c-.374,0-.677.303-.677.677v17.677c0,.374.303.677.677.677h10.336c.374,0,.677-.303.677-.677V3.938c0-.374-.303-.677-.677-.677ZM9.726,11.504l2.161-5.302c.07-.172.326-.122.326.064v3.806c0,.047.038.085.085.085h1.714c.122,0,.204.126.155.238l-1.946,4.415c-.074.168-.324.115-.324-.068v-2.915c0-.047-.038-.085-.084-.085l-1.93-.004c-.12,0-.202-.122-.156-.233ZM16.322,20.765c0,.094-.076.169-.169.169H7.517c-.094,0-.169-.076-.169-.169v-4.377c0-.094.076-.169.169-.169h8.636c.094,0,.169.076.169.169v4.377Z"/>
</svg>