<?xml version="1.0" encoding="UTF-8"?>
<svg id="Layer_1" xmlns="http://www.w3.org/2000/svg" version="1.1" xmlns:xlink="http://www.w3.org/1999/xlink" viewBox="0 0 24 24">
  <!-- Generator: Adobe Illustrator 29.2.1, SVG Export Plug-In . SVG Version: 2.1.0 Build 116)  -->
  <defs>
    
    <clipPath id="clippath">
      <rect fill="none" x="0" width="24" height="24"/>
    </clipPath>
    <clipPath id="clippath-1">
      <rect fill="none" x="0" width="24" height="24"/>
    </clipPath>
  </defs>
  <g clip-path="url(#clippath)">
    <g clip-path="url(#clippath-1)">
      <path fill="currentColor" d="M12.762,12.248l5.495,8.126c.251.372.771.442,1.111.148.209-.18.412-.369.61-.567,4.393-4.393,4.393-11.517,0-15.91-.895-.895-1.903-1.607-2.977-2.137-.402-.198-.888,0-1.038.422l-3.287,9.246c-.08.225-.048.474.085.671"/>
      <path fill="currentColor" d="M1.662,13.268l9.574-1.615c.268-.045.491-.232.582-.488l3.252-9.149c.15-.423-.103-.883-.541-.983-3.645-.829-7.623.175-10.461,3.013C1.727,6.386.634,9.502.788,12.568c.022.448.432.774.874.7"/>
      <path fill="currentColor" d="M11.326,12.598l-9.508,1.604c-.444.075-.721.52-.595.952.511,1.758,1.46,3.415,2.845,4.801,3.553,3.553,8.892,4.232,13.129,2.038.399-.207.529-.715.277-1.087l-5.402-7.988c-.165-.243-.456-.368-.746-.319"/>
    </g>
  </g>
</svg>