<svg viewBox="0 0 24 24" fill="currentColor" xmlns="http://www.w3.org/2000/svg">
  <path fill-rule="evenodd" clip-rule="evenodd"
    d="M13 5C13 4.44772 12.5523 4 12 4C11.4477 4 11 4.44772 11 5V16.5858L5.70711 11.2929C5.31658 10.9023 4.68342 10.9023 4.29289 11.2929C3.90237 11.6834 3.90237 12.3166 4.29289 12.7071L11.2881 19.7022C11.3057 19.7201 11.3239 19.7373 11.3428 19.7537C11.416 19.8177 11.4963 19.8692 11.5809 19.9082C11.7084 19.9671 11.8504 20 12 20C12.1496 20 12.2916 19.9671 12.4191 19.9082C12.5037 19.8692 12.584 19.8177 12.6572 19.7537C12.6761 19.7373 12.6943 19.7201 12.7119 19.7023L19.7071 12.7071C20.0976 12.3166 20.0976 11.6834 19.7071 11.2929C19.3166 10.9023 18.6834 10.9023 18.2929 11.2929L13 16.5858V5Z"
    fill="#currentColor" />
</svg>