<?xml version="1.0" encoding="UTF-8"?>
<svg id="Layer_1" xmlns="http://www.w3.org/2000/svg" version="1.1" xmlns:xlink="http://www.w3.org/1999/xlink" viewBox="0 0 24 24">
  <!-- Generator: Adobe Illustrator 29.2.1, SVG Export Plug-In . SVG Version: 2.1.0 Build 116)  -->
  <defs>
    
    <clipPath id="clippath">
      <rect fill="none" x="0" width="24" height="24"/>
    </clipPath>
    <clipPath id="clippath-1">
      <rect fill="none" x="0" width="24" height="24"/>
    </clipPath>
    <clipPath id="clippath-4">
      <rect fill="none" x="0" width="24" height="24"/>
    </clipPath>
  </defs>
  <g clip-path="url(#clippath)">
    <g clip-path="url(#clippath-4)">
      <path fill="currentColor" d="M18.75,16.875H5.25c-.414,0-.75.336-.75.75v.75c0,.414.336.75.75.75h13.5c.414,0,.75-.336.75-.75v-.75c0-.414-.336-.75-.75-.75"/>
      <path fill="currentColor" d="M12,5.625c.414,0,.75-.336.75-.75v-2.25c0-.414-.336-.75-.75-.75s-.75.336-.75.75v2.25c0,.414.336.75.75.75"/>
      <path fill="currentColor" d="M6.22,7.28c.146.146.338.22.53.22s.384-.073.53-.22c.293-.293.293-.768,0-1.061l-1.591-1.591c-.293-.293-.768-.293-1.061,0-.293.293-.293.768,0,1.061l1.591,1.591Z"/>
      <path fill="currentColor" d="M5.625,11.625c0-.414-.336-.75-.75-.75h-2.25c-.414,0-.75.336-.75.75s.336.75.75.75h2.25c.414,0,.75-.336.75-.75"/>
      <path fill="currentColor" d="M21.375,10.875h-2.25c-.414,0-.75.336-.75.75s.336.75.75.75h2.25c.414,0,.75-.336.75-.75s-.336-.75-.75-.75"/>
      <path fill="currentColor" d="M17.25,7.5c.192,0,.384-.073.53-.22l1.591-1.591c.293-.293.293-.768,0-1.061-.293-.293-.768-.293-1.061,0l-1.591,1.591c-.293.293-.293.768,0,1.061.146.146.338.22.53.22"/>
      <path fill="currentColor" d="M6.75,15.75c0,.207.168.375.375.375h9.75c.207,0,.375-.168.375-.375v-3.75c0-2.899-2.351-5.25-5.25-5.25s-5.25,2.351-5.25,5.25v3.75ZM7.875,11.786s0-3.821,3.139-3.999c.051-.003.069.065.024.089-1.663.865-1.663,3.911-1.663,3.911v3.121c0,.052-.042.094-.094.094h-1.312c-.052,0-.094-.042-.094-.094v-3.121Z"/>
    </g>
  </g>
</svg>