<?xml version="1.0" encoding="UTF-8"?>
<svg id="Layer_1" xmlns="http://www.w3.org/2000/svg" version="1.1" xmlns:xlink="http://www.w3.org/1999/xlink" viewBox="0 0 24 24">
  <!-- Generator: Adobe Illustrator 29.2.1, SVG Export Plug-In . SVG Version: 2.1.0 Build 116)  -->
  <defs>
    
    <clipPath id="clippath">
      <rect fill="none" x="0" width="24" height="24"/>
    </clipPath>
    <clipPath id="clippath-1">
      <rect fill="none" x="0" width="24" height="24"/>
    </clipPath>
    <clipPath id="clippath-3">
      <rect fill="none" x="0" width="24" height="24"/>
    </clipPath>
  </defs>
  <g clip-path="url(#clippath)">
    <g clip-path="url(#clippath-3)">
      <path fill="currentColor" d="M19.279,15.81c-.001,4.11-3.335,7.441-7.445,7.44-4.11-.001-7.441-3.335-7.44-7.445.001-3.15,1.985-5.958,4.954-7.012v-1.088c0-.426.346-.771.772-.772h1.383c.079-1.053.694-1.991,1.628-2.483.679-.267,1.428-.295,2.125-.078.807.172,1.145.24,1.522-.751.087-.225.34-.338.565-.251.225.087.338.34.251.565-.646,1.688-1.688,1.466-2.522,1.288-.515-.172-1.074-.163-1.584.026-.625.344-1.038.975-1.104,1.684h1.165c.425.001.769.347.768.772v1.083c2.975,1.052,4.963,3.865,4.961,7.021"/>
      <path fill="currentColor" d="M18.579,1.142l-.363,1.08c-.05.15-.191.251-.349.252h-.001c-.04,0-.08-.007-.118-.02-.191-.066-.294-.275-.23-.466l.364-1.08c.065-.193.274-.297.467-.232.093.031.169.098.212.186.044.088.051.188.019.281"/>
      <path fill="currentColor" d="M20.018,3.22c-.007.202-.173.361-.373.361h-.01l-1.087-.031c-.206-.007-.368-.179-.362-.385.007-.205.179-.366.383-.361l1.088.032c.206.006.368.179.362.384"/>
      <path fill="currentColor" d="M16.925,2.733c-.058.061-.137.099-.221.106h0c-.011.002-.022.002-.033.002-.09,0-.177-.035-.242-.097l-.751-.719c-.142-.129-.151-.352-.021-.495.063-.069.15-.11.244-.114.093-.004.183.029.253.092.004.004.008.008.013.012l.749.716c.14.134.144.357.011.497"/>
    </g>
  </g>
</svg>