<?xml version="1.0" encoding="UTF-8"?>
<svg id="Layer_1" xmlns="http://www.w3.org/2000/svg" version="1.1" xmlns:xlink="http://www.w3.org/1999/xlink" viewBox="0 0 24 24">
  <!-- Generator: Adobe Illustrator 29.2.1, SVG Export Plug-In . SVG Version: 2.1.0 Build 116)  -->
  <defs>
    
    <clipPath id="clippath">
      <rect fill="none" x="0" width="24" height="24"/>
    </clipPath>
    <clipPath id="clippath-1">
      <rect fill="none" x="0" width="24" height="24"/>
    </clipPath>
    <clipPath id="clippath-5">
      <rect fill="none" x="0" width="24" height="24"/>
    </clipPath>
  </defs>
  <g clip-path="url(#clippath)">
    <g clip-path="url(#clippath-5)">
      <path fill="currentColor" d="M22.5,3.75h-7.124c-.25,0-.499.031-.741.093l-2.45.625c-.122.031-.249.031-.37,0l-2.45-.625c-.242-.062-.491-.093-.741-.093H1.5c-.414,0-.75.336-.75.75v15c0,.414.336.75.75.75h7.028c.313,0,.624.049.921.145l2.32.749c.15.048.311.048.461,0l2.32-.749c.298-.096.609-.145.921-.145h7.028c.414,0,.75-.336.75-.75V4.5c0-.414-.336-.75-.75-.75M8.625,15.75H3c-.207,0-.375-.168-.375-.375s.168-.375.375-.375h5.625c.207,0,.375.168.375.375s-.168.375-.375.375M8.625,13.5H3c-.207,0-.375-.168-.375-.375s.168-.375.375-.375h5.625c.207,0,.375.168.375.375s-.168.375-.375.375M8.625,11.25H3c-.207,0-.375-.168-.375-.375s.168-.375.375-.375h5.625c.207,0,.375.168.375.375s-.168.375-.375.375M8.625,9H3c-.207,0-.375-.168-.375-.375s.168-.375.375-.375h5.625c.207,0,.375.168.375.375s-.168.375-.375.375M12.375,18.375c0,.207-.168.375-.375.375s-.375-.168-.375-.375V7.5c0-.207.168-.375.375-.375s.375.168.375.375v10.875ZM21,15.75h-5.625c-.207,0-.375-.168-.375-.375s.168-.375.375-.375h5.625c.207,0,.375.168.375.375s-.168.375-.375.375M21,13.5h-5.625c-.207,0-.375-.168-.375-.375s.168-.375.375-.375h5.625c.207,0,.375.168.375.375s-.168.375-.375.375M21,11.25h-5.625c-.207,0-.375-.168-.375-.375s.168-.375.375-.375h5.625c.207,0,.375.168.375.375s-.168.375-.375.375M21,9h-5.625c-.207,0-.375-.168-.375-.375s.168-.375.375-.375h5.625c.207,0,.375.168.375.375s-.168.375-.375.375"/>
    </g>
  </g>
</svg>