<?xml version="1.0" encoding="UTF-8"?><svg id="Layer_1" xmlns="http://www.w3.org/2000/svg" viewBox="0 0 24 24"><defs></defs><path fill="currentColor" d="M20.9,5.18h-6.36c-.09,0-.17.08-.17.18v16.67c0,.1.08.18.17.18h6.87c.09,0,.17-.08.17-.18V5.89c0-.39-.31-.71-.69-.71ZM17.12,17.59c0,.2-.15.35-.34.35h-1.03c-.19,0-.34-.16-.34-.35v-.71c0-.2.15-.35.34-.35h1.03c.19,0,.34.16.34.35v.71ZM17.12,15.11c0,.2-.15.35-.34.35h-1.03c-.19,0-.34-.16-.34-.35v-.71c0-.2.15-.35.34-.35h1.03c.19,0,.34.16.34.35v.71ZM17.12,12.63c0,.2-.15.35-.34.35h-1.03c-.19,0-.34-.16-.34-.35v-.71c0-.2.15-.35.34-.35h1.03c.19,0,.34.16.34.35v.71ZM17.12,10.14c0,.2-.15.35-.34.35h-1.03c-.19,0-.34-.16-.34-.35v-.71c0-.2.15-.35.34-.35h1.03c.19,0,.34.16.34.35v.71ZM17.12,7.66c0,.2-.15.35-.34.35h-1.03c-.19,0-.34-.16-.34-.35v-.71c0-.2.15-.35.34-.35h1.03c.19,0,.34.16.34.35v.71ZM20.21,17.59c0,.2-.15.35-.34.35h-1.03c-.19,0-.34-.16-.34-.35v-.71c0-.2.15-.35.34-.35h1.03c.19,0,.34.16.34.35v.71ZM20.21,15.11c0,.2-.15.35-.34.35h-1.03c-.19,0-.34-.16-.34-.35v-.71c0-.2.15-.35.34-.35h1.03c.19,0,.34.16.34.35v.71ZM20.21,12.63c0,.2-.15.35-.34.35h-1.03c-.19,0-.34-.16-.34-.35v-.71c0-.2.15-.35.34-.35h1.03c.19,0,.34.16.34.35v.71ZM20.21,10.14c0,.2-.15.35-.34.35h-1.03c-.19,0-.34-.16-.34-.35v-.71c0-.2.15-.35.34-.35h1.03c.19,0,.34.16.34.35v.71ZM20.21,7.66c0,.2-.15.35-.34.35h-1.03c-.19,0-.34-.16-.34-.35v-.71c0-.2.15-.35.34-.35h1.03c.19,0,.34.16.34.35v.71Z"/><path fill="currentColor" d="M12.99,1.63H3.37c-.38,0-.69.32-.69.71v19.69c0,.1.08.18.17.18h4.12c.09,0,.17-.08.17-.18v-2.4c0-.14.15-.26.34-.26h1.37c.19,0,.34.12.34.26v2.4c0,.1.08.18.17.18h4.12c.09,0,.17-.08.17-.18V2.34c0-.39-.31-.71-.69-.71ZM6.12,17.59c0,.2-.15.35-.34.35h-1.37c-.19,0-.34-.16-.34-.35v-1.06c0-.2.15-.35.34-.35h1.37c.19,0,.34.16.34.35v1.06ZM6.12,14.4c0,.2-.15.35-.34.35h-1.37c-.19,0-.34-.16-.34-.35v-1.06c0-.2.15-.35.34-.35h1.37c.19,0,.34.16.34.35v1.06ZM6.12,11.21c0,.2-.15.35-.34.35h-1.37c-.19,0-.34-.16-.34-.35v-1.06c0-.2.15-.35.34-.35h1.37c.19,0,.34.16.34.35v1.06ZM6.12,8.01c0,.2-.15.35-.34.35h-1.37c-.19,0-.34-.16-.34-.35v-1.06c0-.2.15-.35.34-.35h1.37c.19,0,.34.16.34.35v1.06ZM6.12,4.82c0,.2-.15.35-.34.35h-1.37c-.19,0-.34-.16-.34-.35v-1.06c0-.2.15-.35.34-.35h1.37c.19,0,.34.16.34.35v1.06ZM9.21,17.59c0,.2-.15.35-.34.35h-1.37c-.19,0-.34-.16-.34-.35v-1.06c0-.2.15-.35.34-.35h1.37c.19,0,.34.16.34.35v1.06ZM9.21,14.4c0,.2-.15.35-.34.35h-1.37c-.19,0-.34-.16-.34-.35v-1.06c0-.2.15-.35.34-.35h1.37c.19,0,.34.16.34.35v1.06ZM9.21,11.21c0,.2-.15.35-.34.35h-1.37c-.19,0-.34-.16-.34-.35v-1.06c0-.2.15-.35.34-.35h1.37c.19,0,.34.16.34.35v1.06ZM9.21,8.01c0,.2-.15.35-.34.35h-1.37c-.19,0-.34-.16-.34-.35v-1.06c0-.2.15-.35.34-.35h1.37c.19,0,.34.16.34.35v1.06ZM9.21,4.82c0,.2-.15.35-.34.35h-1.37c-.19,0-.34-.16-.34-.35v-1.06c0-.2.15-.35.34-.35h1.37c.19,0,.34.16.34.35v1.06ZM12.3,17.59c0,.2-.15.35-.34.35h-1.37c-.19,0-.34-.16-.34-.35v-1.06c0-.2.15-.35.34-.35h1.37c.19,0,.34.16.34.35v1.06ZM12.3,14.4c0,.2-.15.35-.34.35h-1.37c-.19,0-.34-.16-.34-.35v-1.06c0-.2.15-.35.34-.35h1.37c.19,0,.34.16.34.35v1.06ZM12.3,11.21c0,.2-.15.35-.34.35h-1.37c-.19,0-.34-.16-.34-.35v-1.06c0-.2.15-.35.34-.35h1.37c.19,0,.34.16.34.35v1.06ZM12.3,8.01c0,.2-.15.35-.34.35h-1.37c-.19,0-.34-.16-.34-.35v-1.06c0-.2.15-.35.34-.35h1.37c.19,0,.34.16.34.35v1.06ZM12.3,4.82c0,.2-.15.35-.34.35h-1.37c-.19,0-.34-.16-.34-.35v-1.06c0-.2.15-.35.34-.35h1.37c.19,0,.34.16.34.35v1.06Z"/></svg>