<?xml version="1.0" encoding="UTF-8"?><svg id="Office" xmlns="http://www.w3.org/2000/svg" viewBox="0 0 24 24"><defs></defs><path fill="currentColor" d="M22.1,5.22h-3.38c-.1,0-.18.08-.18.18v16.64c0,.1.08.18.18.18h3.91c.1,0,.18-.08.18-.18V5.93c0-.39-.32-.71-.71-.71ZM21.39,17.62c0,.2-.16.35-.36.35h-1.07c-.2,0-.36-.16-.36-.35v-.71c0-.2.16-.35.36-.35h1.07c.2,0,.36.16.36.35v.71ZM21.39,15.14c0,.2-.16.35-.36.35h-1.07c-.2,0-.36-.16-.36-.35v-.71c0-.2.16-.35.36-.35h1.07c.2,0,.36.16.36.35v.71ZM21.39,12.66c0,.2-.16.35-.36.35h-1.07c-.2,0-.36-.16-.36-.35v-.71c0-.2.16-.35.36-.35h1.07c.2,0,.36.16.36.35v.71ZM21.39,10.18c0,.2-.16.35-.36.35h-1.07c-.2,0-.36-.16-.36-.35v-.71c0-.2.16-.35.36-.35h1.07c.2,0,.36.16.36.35v.71ZM21.39,7.7c0,.2-.16.35-.36.35h-1.07c-.2,0-.36-.16-.36-.35v-.71c0-.2.16-.35.36-.35h1.07c.2,0,.36.16.36.35v.71Z"/><path fill="currentColor" d="M1.49,5.93v16.11c0,.1.08.18.18.18h3.91c.1,0,.18-.08.18-.18V5.4c0-.1-.08-.18-.18-.18h-3.38c-.39,0-.71.32-.71.71ZM2.91,6.99c0-.2.16-.35.36-.35h1.07c.2,0,.36.16.36.35v.71c0,.2-.16.35-.36.35h-1.07c-.2,0-.36-.16-.36-.35v-.71ZM2.91,9.47c0-.2.16-.35.36-.35h1.07c.2,0,.36.16.36.35v.71c0,.2-.16.35-.36.35h-1.07c-.2,0-.36-.16-.36-.35v-.71ZM2.91,11.95c0-.2.16-.35.36-.35h1.07c.2,0,.36.16.36.35v.71c0,.2-.16.35-.36.35h-1.07c-.2,0-.36-.16-.36-.35v-.71ZM2.91,14.43c0-.2.16-.35.36-.35h1.07c.2,0,.36.16.36.35v.71c0,.2-.16.35-.36.35h-1.07c-.2,0-.36-.16-.36-.35v-.71ZM2.91,16.91c0-.2.16-.35.36-.35h1.07c.2,0,.36.16.36.35v.71c0,.2-.16.35-.36.35h-1.07c-.2,0-.36-.16-.36-.35v-.71Z"/><path fill="currentColor" d="M17.13,1.68H7.18c-.39,0-.71.32-.71.71v19.65c0,.1.08.18.18.18h4.26c.1,0,.18-.08.18-.18v-2.4c0-.14.16-.26.36-.26h1.42c.2,0,.36.12.36.26v2.4c0,.1.08.18.18.18h4.26c.1,0,.18-.08.18-.18V2.39c0-.39-.32-.71-.71-.71ZM10.02,17.62c0,.2-.16.35-.36.35h-1.42c-.2,0-.36-.16-.36-.35v-1.06c0-.2.16-.35.36-.35h1.42c.2,0,.36.16.36.35v1.06ZM10.02,14.43c0,.2-.16.35-.36.35h-1.42c-.2,0-.36-.16-.36-.35v-1.06c0-.2.16-.35.36-.35h1.42c.2,0,.36.16.36.35v1.06ZM10.02,11.24c0,.2-.16.35-.36.35h-1.42c-.2,0-.36-.16-.36-.35v-1.06c0-.2.16-.35.36-.35h1.42c.2,0,.36.16.36.35v1.06ZM10.02,8.06c0,.2-.16.35-.36.35h-1.42c-.2,0-.36-.16-.36-.35v-1.06c0-.2.16-.35.36-.35h1.42c.2,0,.36.16.36.35v1.06ZM10.02,4.87c0,.2-.16.35-.36.35h-1.42c-.2,0-.36-.16-.36-.35v-1.06c0-.2.16-.35.36-.35h1.42c.2,0,.36.16.36.35v1.06ZM13.22,17.62c0,.2-.16.35-.36.35h-1.42c-.2,0-.36-.16-.36-.35v-1.06c0-.2.16-.35.36-.35h1.42c.2,0,.36.16.36.35v1.06ZM13.22,14.43c0,.2-.16.35-.36.35h-1.42c-.2,0-.36-.16-.36-.35v-1.06c0-.2.16-.35.36-.35h1.42c.2,0,.36.16.36.35v1.06ZM13.22,11.24c0,.2-.16.35-.36.35h-1.42c-.2,0-.36-.16-.36-.35v-1.06c0-.2.16-.35.36-.35h1.42c.2,0,.36.16.36.35v1.06ZM13.22,8.06c0,.2-.16.35-.36.35h-1.42c-.2,0-.36-.16-.36-.35v-1.06c0-.2.16-.35.36-.35h1.42c.2,0,.36.16.36.35v1.06ZM13.22,4.87c0,.2-.16.35-.36.35h-1.42c-.2,0-.36-.16-.36-.35v-1.06c0-.2.16-.35.36-.35h1.42c.2,0,.36.16.36.35v1.06ZM16.42,17.62c0,.2-.16.35-.36.35h-1.42c-.2,0-.36-.16-.36-.35v-1.06c0-.2.16-.35.36-.35h1.42c.2,0,.36.16.36.35v1.06ZM16.42,14.43c0,.2-.16.35-.36.35h-1.42c-.2,0-.36-.16-.36-.35v-1.06c0-.2.16-.35.36-.35h1.42c.2,0,.36.16.36.35v1.06ZM16.42,11.24c0,.2-.16.35-.36.35h-1.42c-.2,0-.36-.16-.36-.35v-1.06c0-.2.16-.35.36-.35h1.42c.2,0,.36.16.36.35v1.06ZM16.42,8.06c0,.2-.16.35-.36.35h-1.42c-.2,0-.36-.16-.36-.35v-1.06c0-.2.16-.35.36-.35h1.42c.2,0,.36.16.36.35v1.06ZM16.42,4.87c0,.2-.16.35-.36.35h-1.42c-.2,0-.36-.16-.36-.35v-1.06c0-.2.16-.35.36-.35h1.42c.2,0,.36.16.36.35v1.06Z"/></svg>