<?xml version="1.0" encoding="UTF-8"?>
<svg id="Layer_1" xmlns="http://www.w3.org/2000/svg" version="1.1" xmlns:xlink="http://www.w3.org/1999/xlink" viewBox="0 0 24 24">
  <!-- Generator: Adobe Illustrator 29.2.1, SVG Export Plug-In . SVG Version: 2.1.0 Build 116)  -->
  <defs>
    
    <clipPath id="clippath">
      <rect fill="none" x="0" width="24" height="24"/>
    </clipPath>
    <clipPath id="clippath-1">
      <rect fill="none" x="0" width="24" height="24"/>
    </clipPath>
    <clipPath id="clippath-5">
      <rect fill="none" x="0" width="24" height="24"/>
    </clipPath>
  </defs>
  <g clip-path="url(#clippath)">
    <g clip-path="url(#clippath-5)">
      <path fill="currentColor" d="M19.5.75H4.5c-.414,0-.75.336-.75.75v21c0,.414.336.75.75.75h15c.414,0,.75-.336.75-.75V1.5c0-.414-.336-.75-.75-.75M18.562,20.25H5.437c-.104,0-.188-.084-.188-.188V2.438c0-.104.084-.188.188-.188h4.688v.375c0,.207.168.375.375.375h3c.207,0,.375-.168.375-.375v-.375h4.688c.104,0,.188.084.188.188v17.625c0,.104-.084.188-.188.188"/>
      <path fill="currentColor" d="M7.05,6.375c-.166,0-.3.168-.3.375s.134.375.3.375h6.9c.166,0,.3-.168.3-.375s-.134-.375-.3-.375h-6.9Z"/>
      <path fill="currentColor" d="M13.95,9.348h-6.9c-.166,0-.3.168-.3.375s.134.375.3.375h6.9c.166,0,.3-.168.3-.375s-.134-.375-.3-.375"/>
      <path fill="currentColor" d="M15.807,7.288c.036.072.095.132.169.162.04.016.081.024.122.024.085,0,.167-.033.227-.094l1.196-1.196c.124-.124.137-.329.016-.457-.125-.133-.334-.135-.461-.007l-.89.89-.196-.393c-.079-.157-.269-.234-.428-.16-.165.077-.234.274-.153.436l.398.796Z"/>
      <path fill="currentColor" d="M15.807,10.261c.036.072.095.132.169.162.04.016.081.024.122.024.085,0,.167-.033.227-.094l1.196-1.196c.124-.124.137-.329.016-.457-.125-.133-.334-.135-.461-.007l-.89.89-.196-.393c-.079-.157-.269-.234-.428-.16-.165.077-.234.274-.153.436l.398.796Z"/>
      <path fill="currentColor" d="M13.95,12.375h-6.9c-.166,0-.3.168-.3.375s.134.375.3.375h6.9c.166,0,.3-.168.3-.375s-.134-.375-.3-.375"/>
      <path fill="currentColor" d="M13.95,15.348h-6.9c-.166,0-.3.168-.3.375s.134.375.3.375h6.9c.166,0,.3-.168.3-.375s-.134-.375-.3-.375"/>
      <path fill="currentColor" d="M15.807,13.288c.036.072.095.132.169.162.04.016.081.024.122.024.085,0,.167-.033.227-.094l1.196-1.196c.124-.124.137-.329.016-.457-.125-.133-.334-.135-.461-.007l-.89.89-.196-.393c-.079-.157-.269-.234-.428-.16-.165.077-.234.274-.153.436l.398.796Z"/>
      <path fill="currentColor" d="M15.807,16.261c.036.072.095.132.169.162.04.016.081.024.122.024.085,0,.167-.033.227-.094l1.196-1.196c.124-.124.137-.329.016-.457-.125-.133-.334-.135-.461-.007l-.89.89-.196-.393c-.079-.157-.269-.234-.428-.16-.165.077-.234.274-.153.436l.398.796Z"/>
    </g>
  </g>
</svg>