<svg viewBox="0 0 24 24" fill="currentColor" xmlns="http://www.w3.org/2000/svg">
  <path fill-rule="evenodd" clip-rule="evenodd"
    d="M3.87868 1.87871C4.44129 1.3161 5.20435 1.00003 6 1.00003H14C14.2652 1.00003 14.5196 1.10539 14.7071 1.29292L20.7071 7.29292C20.8946 7.48046 21 7.73481 21 8.00003V20C21 20.7957 20.6839 21.5587 20.1213 22.1214C19.5587 22.684 18.7956 23 18 23H6C5.20435 23 4.44129 22.684 3.87868 22.1214C3.31607 21.5587 3 20.7957 3 20V4.00003C3 3.20438 3.31607 2.44132 3.87868 1.87871ZM6 3.00003C5.73478 3.00003 5.48043 3.10539 5.29289 3.29292C5.10536 3.48046 5 3.73481 5 4.00003V20C5 20.2652 5.10536 20.5196 5.29289 20.7071C5.48043 20.8947 5.73478 21 6 21H18C18.2652 21 18.5196 20.8947 18.7071 20.7071C18.8946 20.5196 19 20.2652 19 20V9.00003H14C13.4478 9.00003 13 8.55232 13 8.00004L13 3.00003H6ZM15 4.41426L17.5858 7.00003H15L15 4.41426ZM12 11C12.5523 11 13 11.4477 13 12V14H15C15.5523 14 16 14.4477 16 15C16 15.5523 15.5523 16 15 16H13V18C13 18.5523 12.5523 19 12 19C11.4477 19 11 18.5523 11 18V16H9.00002C8.44773 16 8.00002 15.5523 8.00002 15C8.00002 14.4477 8.44773 14 9.00002 14H11V12C11 11.4477 11.4477 11 12 11Z"
    fill="#currentColor" />
</svg>