<svg viewBox="0 0 24 24" fill="currentColor" xmlns="http://www.w3.org/2000/svg">
    <g clip-path="url(#clip0_1361_2636)">
        <path fill-rule="evenodd" clip-rule="evenodd"
              d="M5.99998 -1.52588e-05C6.55227 -1.52588e-05 6.99998 0.4477 6.99998 0.999985V3.99998C6.99998 4.55227 6.55227 4.99998 5.99998 4.99998C5.4477 4.99998 4.99998 4.55227 4.99998 3.99998V0.999985C4.99998 0.4477 5.4477 -1.52588e-05 5.99998 -1.52588e-05ZM9.99997 -1.52588e-05C10.5523 -1.52588e-05 11 0.4477 11 0.999985V3.99998C11 4.55227 10.5523 4.99998 9.99997 4.99998C9.44768 4.99998 8.99997 4.55227 8.99997 3.99998V0.999985C8.99997 0.4477 9.44768 -1.52588e-05 9.99997 -1.52588e-05ZM14 -1.52588e-05C14.5523 -1.52588e-05 15 0.4477 15 0.999985V3.99998C15 4.55227 14.5523 4.99998 14 4.99998C13.4477 4.99998 13 4.55227 13 3.99998V0.999985C13 0.4477 13.4477 -1.52588e-05 14 -1.52588e-05ZM1 8.00002C1 7.44773 1.44772 7.00002 2 7.00002H19C20.3261 7.00002 21.5978 7.5268 22.5355 8.46448C23.4732 9.40216 24 10.6739 24 12C24 13.3261 23.4732 14.5979 22.5355 15.5356C21.5978 16.4732 20.3261 17 19 17C19 18.3261 18.4732 19.5979 17.5355 20.5356C16.5979 21.4732 15.3261 22 14 22H6C4.67392 22 3.40215 21.4732 2.46447 20.5356C1.52678 19.5979 1 18.3261 1 17V8.00002ZM17 16.0053C17 16.0035 17 16.0018 17 16C17 15.9983 17 15.9965 17 15.9948L17 9.00002H3V17C3 17.7957 3.31607 18.5587 3.87868 19.1213C4.44129 19.6839 5.20435 20 6 20H14C14.7956 20 15.5587 19.6839 16.1213 19.1213C16.6839 18.5587 17 17.7957 17 17L17 16.0053ZM19 9.00002V15C19.7956 15 20.5587 14.6839 21.1213 14.1213C21.6839 13.5587 22 12.7957 22 12C22 11.2044 21.6839 10.4413 21.1213 9.8787C20.5587 9.31609 19.7956 9.00002 19 9.00002Z"
              fill="#currentColor"/>
    </g>
    <defs>
        <clipPath id="clip0_1361_2636">
            <rect width="24" height="24" fill="white"/>
        </clipPath>
    </defs>
</svg>