<svg viewBox="0 0 24 24" fill="currentColor" xmlns="http://www.w3.org/2000/svg">
  <path fill-rule="evenodd" clip-rule="evenodd"
    d="M8.00002 1.00003C8.5523 1.00003 9.00002 1.44775 9.00002 2.00003V3H15V2.00003C15 1.44775 15.4477 1.00003 16 1.00003C16.5523 1.00003 17 1.44775 17 2.00003V3H19C20.6569 3 22 4.34314 22 6V20C22 21.6568 20.6569 23 19 23H5C3.34315 23 2 21.6568 2 20V6C2 4.34314 3.34315 3 5 3H7.00002V2.00003C7.00002 1.44775 7.44773 1.00003 8.00002 1.00003ZM7.00002 5H5C4.44772 5 4 5.44771 4 6V9H20V6C20 5.44771 19.5523 5 19 5H17V6.00003C17 6.55232 16.5523 7.00003 16 7.00003C15.4477 7.00003 15 6.55232 15 6.00003V5H9.00002V6.00003C9.00002 6.55232 8.5523 7.00003 8.00002 7.00003C7.44773 7.00003 7.00002 6.55232 7.00002 6.00003V5ZM20 11H4V20C4 20.5523 4.44772 21 5 21H19C19.5523 21 20 20.5523 20 20V11Z"
    fill="#currentColor" />
</svg>