<?xml version="1.0" encoding="UTF-8"?><svg id="Office" xmlns="http://www.w3.org/2000/svg" viewBox="0 0 24 24"><defs></defs><path fill="currentColor" d="M11.292,15.199c.185.186.436.292.699.292.262,0,.513-.103.698-.289h.001s4.51-4.528,4.51-4.528c.444-.446.373-1.211-.212-1.555-.382-.224-.87-.151-1.183.162h-.001s-1.841,1.849-1.841,1.849V1.867c0-.19-.154-.344-.344-.344h-3.255c-.19,0-.344.154-.344.344v9.248l-1.849-1.867c-.383-.387-1.007-.39-1.394-.007l-.003.003c-.383.383-.385,1.005-.003,1.39l4.52,4.564Z"/><path fill="currentColor" d="M19.51,14.505c-.535.019-.952.475-.952,1.011v4.295c0,.19-.154.344-.344.344H5.761c-.19,0-.344-.154-.344-.344v-4.319c0-.558-.462-1.007-1.024-.987-.535.019-.952.475-.952,1.011v5.24c0,.759.615,1.375,1.375,1.375h14.343c.759,0,1.375-.615,1.375-1.375v-5.264c0-.558-.462-1.007-1.024-.987Z"/></svg>