<?xml version="1.0" encoding="UTF-8"?>
<svg id="Layer_1" xmlns="http://www.w3.org/2000/svg" version="1.1" xmlns:xlink="http://www.w3.org/1999/xlink" viewBox="0 0 24 24">
  <!-- Generator: Adobe Illustrator 29.2.1, SVG Export Plug-In . SVG Version: 2.1.0 Build 116)  -->
  <defs>
    
    <clipPath id="clippath">
      <rect fill="none" x="0" width="24" height="24"/>
    </clipPath>
    <clipPath id="clippath-1">
      <rect fill="none" x="0" width="24" height="24"/>
    </clipPath>
  </defs>
  <g clip-path="url(#clippath)">
    <g clip-path="url(#clippath-1)">
      <path fill="currentColor" d="M22.95,10.391l-2.549-.902c-.132-.047-.235-.152-.278-.286-.111-.347-.244-.685-.397-1.012-.057-.121-.056-.262.002-.383l1.152-2.414c.082-.172.047-.378-.088-.513l-1.674-1.674c-.135-.135-.34-.17-.513-.088l-2.319,1.107c-.126.06-.273.059-.397-.005-.368-.188-.751-.35-1.148-.483-.131-.044-.233-.146-.279-.276l-.854-2.413c-.064-.18-.234-.3-.425-.3h-2.368c-.191,0-.361.12-.425.3l-.863,2.439c-.045.128-.146.23-.274.274-.383.132-.753.291-1.108.475-.124.064-.272.065-.398.005l-2.353-1.123c-.172-.082-.378-.047-.513.088l-1.674,1.674c-.135.135-.17.34-.088.513l1.185,2.484c.057.119.059.258.004.379-.137.298-.256.606-.358.922-.043.133-.146.238-.277.284l-2.624.929c-.18.064-.3.234-.3.425v2.368c0,.191.12.361.3.425l2.796.99c.123.043.221.138.269.26.087.225.184.446.29.661.06.123.061.267.002.391l-1.286,2.696c-.082.172-.047.378.088.513l1.674,1.674c.135.135.34.17.513.088l2.796-1.334c.119-.057.256-.059.376-.005.171.077.346.148.523.213.125.046.222.146.267.271l1.035,2.925c.064.18.234.3.425.3h2.368c.191,0,.361-.12.425-.3l1.025-2.897c.045-.127.144-.227.27-.272.191-.069.379-.144.563-.226.119-.053.256-.05.374.006l2.765,1.319c.172.082.378.047.513-.088l1.674-1.674c.135-.135.17-.34.088-.513l-1.254-2.628c-.059-.125-.059-.27.003-.393.122-.245.233-.496.332-.753.047-.122.146-.216.269-.26l2.72-.962c.18-.064.3-.234.3-.425v-2.368c0-.191-.12-.361-.3-.425M12,16.125c-2.278,0-4.125-1.847-4.125-4.125s1.847-4.125,4.125-4.125,4.125,1.847,4.125,4.125-1.847,4.125-4.125,4.125"/>
    </g>
  </g>
</svg>