<?xml version="1.0" encoding="UTF-8"?>
<svg id="Layer_1" xmlns="http://www.w3.org/2000/svg" version="1.1" viewBox="0 0 24 24">
  <!-- Generator: Adobe Illustrator 29.2.1, SVG Export Plug-In . SVG Version: 2.1.0 Build 116)  -->
  <defs>
    
  </defs>
  <g id="v2_ohneKreis_">
    <path id="Path_97-2-5" fill="currentColor" d="M10.712.905l-1.319,1.464c-.075.074-.178.111-.283.103-.26-.02-.52-.026-.78-.017-.101.01-.201-.032-.265-.112l-1.289-1.45c-.093-.108-.245-.145-.377-.091l-1.582.648c-.133.053-.216.186-.207.328l.086,1.868c.01.101-.032.201-.111.265-.232.197-.452.407-.659.629-.063.076-.158.118-.256.114l-1.861-.125c-.138-.002-.262.082-.312.21l-.669,1.588c-.059.121-.029.267.072.356l1.399,1.271c.076.068.116.167.109.268-.02.289-.022.58-.007.87.016.101-.021.203-.097.271l-1.418,1.265c-.104.096-.14.245-.091.377l.646,1.585c.053.133.186.216.328.207l1.985-.103c.101-.01.201.032.265.112.16.174.332.338.512.49.076.068.116.167.109.268l-.114,2.02c-.014.143.071.277.205.327l1.588.669c.129.062.284.028.377-.081l1.444-1.6c.067-.065.157-.102.251-.102.184.009.36-.002.53.001.1-.008.199.027.271.097l1.427,1.627c.096.104.245.14.377.091l1.591-.648c.129-.057.211-.187.207-.328l-.111-2.256c.005-.092.042-.179.104-.247l.294-.292c.065-.073.158-.114.256-.114l2.256.129c.139.024.275-.057.32-.19l.669-1.588c.062-.13.028-.284-.081-.377l-1.645-1.498c-.076-.068-.116-.167-.109-.268l.014-.439c-.012-.095.028-.189.104-.247l1.665-1.473c.108-.093.145-.245.091-.377l-.648-1.591c-.057-.129-.187-.211-.328-.207l-2.115.102c-.098-.007-.191-.046-.265-.112-.139-.163-.267-.301-.411-.447-.07-.064-.108-.156-.102-.251l.132-2.101c.001-.138-.083-.262-.211-.312l-1.588-.669c-.131-.052-.28-.015-.372.091ZM11.47,9.87c-.638,1.537-2.402,2.265-3.938,1.626-1.537-.638-2.265-2.402-1.626-3.938.638-1.537,2.402-2.265,3.938-1.626l.014.006h0c1.528.644,2.248,2.401,1.612,3.932h0Z"/>
    <path id="Path_97-2-6" fill="currentColor" d="M17.417,13.061l-.426,1.163c-.027.061-.078.107-.141.126-.156.048-.309.105-.459.171-.056.03-.124.028-.179-.003l-1.09-.544c-.079-.04-.175-.026-.239.036l-.777.75c-.064.062-.081.158-.043.238l.486,1.069c.03.056.028.124-.003.179-.089.168-.167.341-.236.518-.018.059-.063.106-.121.127l-1.117.368c-.08.032-.133.11-.132.196l-.019,1.08c-.005.084.046.161.125.187l1.113.419c.06.022.107.07.126.131.056.173.123.343.2.508.033.054.036.122.007.179l-.535,1.071c-.037.079-.023.174.036.239l.75.776c.062.064.157.081.237.044l1.139-.525c.056-.03.124-.029.179.003.134.064.272.119.413.166.06.022.107.07.126.131l.404,1.205c.025.086.106.145.196.142l1.08.019c.09.006.172-.05.201-.135l.468-1.271c.024-.053.067-.094.121-.116.11-.038.21-.089.31-.123.056-.028.121-.031.179-.007l1.215.616c.08.037.174.023.239-.036l.777-.75c.061-.063.079-.157.044-.237l-.592-1.289c-.019-.055-.018-.114.003-.169l.103-.236c.021-.057.065-.103.121-.127l1.346-.452c.086-.018.146-.095.142-.183l.019-1.082c.006-.09-.05-.172-.135-.201l-1.31-.486c-.06-.022-.107-.07-.126-.131l-.095-.259c-.029-.053-.028-.117.003-.169l.629-1.247c.04-.079.026-.175-.036-.239l-.75-.776c-.063-.063-.158-.081-.239-.046l-1.209.553c-.058.019-.121.018-.179-.003-.117-.061-.226-.113-.344-.164-.053-.02-.095-.063-.115-.116l-.415-1.256c-.032-.08-.11-.133-.196-.132l-1.079-.019c-.085-.005-.164.043-.2.121ZM19.955,18.109c-.012,1.045-.868,1.883-1.914,1.872-1.045-.012-1.883-.868-1.872-1.914.012-1.045.868-1.883,1.914-1.872h.013c1.041.018,1.872.874,1.86,1.915v-.002Z"/>
  </g>
</svg>