<svg viewBox="0 0 22 22" fill="currentColor" xmlns="http://www.w3.org/2000/svg">
<path fill-rule="evenodd" clip-rule="evenodd" d="M11 22C16.904 22 21.727 17.339 21.989 11.5H22V10.5H21.989L21.988 10.487C21.967 10.029 21.918 9.573 21.84 9.122C21.725 8.452 21.546 7.793 21.309 7.156C21.011 6.36 20.621 5.599 20.148 4.893C19.658 4.161 19.08 3.488 18.431 2.892C17.862 2.371 17.239 1.909 16.574 1.517C15.931 1.138 15.249 0.824 14.542 0.584C13.869 0.355 13.174 0.192 12.469 0.0970001C11.982 0.0320001 11.491 0 11 0C5.096 0 0.273002 4.661 0.0110016 10.5H0V11.5H0.0110016C0.273002 17.339 5.096 22 11 22ZM15.085 16.717C13.898 16.88 12.703 16.969 11.5 16.983V20.949C12.372 20.769 13.166 20.127 13.841 19.182C14.326 18.502 14.747 17.668 15.085 16.717ZM6.901 16.679C7.241 17.646 7.667 18.493 8.159 19.182C8.834 20.127 9.628 20.769 10.5 20.949V16.977C9.308 16.951 8.108 16.851 6.901 16.679ZM2.138 15.635C3.353 17.95 5.448 19.732 7.978 20.534C7.758 20.302 7.54699 20.045 7.34599 19.764C6.72099 18.889 6.191 17.779 5.793 16.501C4.582 16.285 3.364 15.996 2.138 15.635ZM19.855 15.648C18.643 16.027 17.422 16.325 16.194 16.543C15.798 17.803 15.272 18.899 14.654 19.764C14.453 20.045 14.242 20.302 14.022 20.534C16.547 19.734 18.639 17.957 19.855 15.648ZM15.994 11.5H11.5V15.982C12.814 15.966 14.119 15.858 15.414 15.658C15.752 14.402 15.956 12.993 15.994 11.5ZM10.5 15.976V11.5H6.006C6.043 12.977 6.243 14.372 6.575 15.618C7.892 15.826 9.201 15.946 10.5 15.976ZM20.988 11.5H16.994C16.96 12.91 16.783 14.25 16.49 15.47C17.694 15.236 18.889 14.921 20.076 14.526L20.4 14.418C20.734 13.5 20.937 12.52 20.988 11.5ZM5.006 11.5H1.01199C1.06299 12.523 1.267 13.506 1.603 14.426L1.91499 14.523C3.11699 14.896 4.312 15.198 5.5 15.429C5.213 14.22 5.04 12.894 5.006 11.5ZM5.502 6.563C4.319 6.795 3.124 7.099 1.916 7.477L1.603 7.575C1.267 8.495 1.06299 9.477 1.01199 10.5H5.006C5.04 9.102 5.214 7.774 5.502 6.563ZM11.5 6.001V10.5H15.994C15.956 9 15.75 7.585 15.41 6.325C14.123 6.125 12.82 6.016 11.5 6.001ZM16.487 6.515C16.781 7.739 16.96 9.084 16.994 10.5H20.988C20.937 9.481 20.734 8.501 20.401 7.584L20.073 7.474C18.892 7.073 17.696 6.753 16.487 6.515ZM10.5 6.007C9.208 6.039 7.901 6.159 6.578 6.371C6.245 7.62 6.043 9.019 6.006 10.5H10.5V6.007ZM7.978 1.466C5.448 2.268 3.35301 4.049 2.13901 6.364C3.37001 5.998 4.58901 5.707 5.79601 5.489C6.19301 4.216 6.72299 3.108 7.34599 2.236C7.54699 1.955 7.758 1.698 7.978 1.466ZM14.022 1.466C14.242 1.698 14.453 1.955 14.654 2.236C15.269 3.097 15.793 4.188 16.189 5.441C17.425 5.662 18.646 5.966 19.853 6.349C18.637 4.042 16.546 2.266 14.022 1.466ZM10.5 1.051C9.628 1.231 8.834 1.873 8.159 2.818C7.669 3.504 7.245 4.348 6.905 5.309C8.116 5.134 9.314 5.034 10.5 5.006V1.051ZM11.5 1.051V4.999C12.706 5.013 13.899 5.102 15.079 5.265C14.742 4.322 14.323 3.493 13.841 2.818C13.166 1.873 12.372 1.231 11.5 1.051Z" fill="currentColor"/>
</svg>
