<?xml version="1.0" encoding="UTF-8"?>
<svg id="Layer_1" xmlns="http://www.w3.org/2000/svg" version="1.1" xmlns:xlink="http://www.w3.org/1999/xlink" viewBox="0 0 24 24">
  <!-- Generator: Adobe Illustrator 29.2.1, SVG Export Plug-In . SVG Version: 2.1.0 Build 116)  -->
  <defs>
    
    <clipPath id="clippath">
      <rect fill="none" x="0" width="24" height="24"/>
    </clipPath>
    <clipPath id="clippath-1">
      <rect fill="none" x="0" width="24" height="24"/>
    </clipPath>
    <clipPath id="clippath-3">
      <rect fill="none" x="0" width="24" height="24"/>
    </clipPath>
  </defs>
  <g clip-path="url(#clippath)">
    <g clip-path="url(#clippath-3)">
      <path fill="currentColor" d="M22.966,7.367l-3.799-3.799c-.323-.323-.846-.323-1.169,0l-1.753,1.753c-.323.323-.323.846,0,1.169l3.799,3.799c.323.323.846.323,1.169,0l1.753-1.753c.323-.323.323-.846,0-1.169"/>
      <path fill="currentColor" d="M7.755,5.847l-1.753-1.753c-.323-.323-.846-.323-1.169,0l-3.799,3.799c-.323.323-.323.846,0,1.169l1.753,1.753c.323.323.846.323,1.169,0l3.799-3.799c.323-.323.323-.846,0-1.169"/>
      <path fill="currentColor" d="M9.898,18.09c.037-.337-.063-.687-.306-.96-.232-.261-.55-.4-.874-.414.259-.45.215-1.033-.149-1.442-.284-.319-.696-.456-1.089-.405.107-.391.02-.827-.27-1.152-.455-.511-1.239-.557-1.75-.101l-.561.499c-.511.455-.557,1.239-.101,1.75.264.297.64.436,1.008.412-.147.413-.07.891.242,1.242.312.351.778.482,1.206.384-.066.363.029.752.293,1.049.343.386.874.506,1.333.347-.037.337.063.687.306.96.455.511,1.239.557,1.75.101l.194-.173c.511-.455.557-1.239.101-1.75-.343-.386-.874-.506-1.333-.347"/>
      <path fill="currentColor" d="M17.91,14.234l-.044-.044-.391-.391-2.646-2.646c-.016-.016-.033-.031-.05-.046-.006-.005-.012-.01-.017-.015-.015-.013-.03-.026-.046-.038l-.003-.003-.029-.029-.65-.65-1.254.942.002.003c-.38.591-.53.787-.615.88-.285.382-.678.786-.695.804l-.022.023-.024.021c-.405.358-.963.563-1.532.563-.616,0-1.185-.245-1.561-.671-.215-.244-.539-.768-.294-1.541.118-.371.333-.709.542-1.037.067-.105.13-.205.189-.302.192-.365.629-1.188.776-1.398.063-.091.208-.299,1.332-1.091-.034-.014-.068-.028-.102-.041-1.179-.447-2.562-.196-3.511.753l-1.461,1.461c-.872.872-1.154,2.109-.849,3.218.372-.313.841-.484,1.328-.484.589,0,1.152.252,1.544.692.251.282.415.619.485.977.333.114.635.312.873.58.362.407.54.926.523,1.445.185.108.354.246.501.411.168.188.298.404.386.636.481.068.926.305,1.253.671.661.742.687,1.832.119,2.602.468.248,1.062.175,1.457-.219.226-.226.346-.519.36-.815.487.421,1.223.401,1.685-.061.255-.255.375-.594.361-.929.454.199,1.003.114,1.375-.258.372-.372.457-.921.257-1.375.334.014.674-.105.929-.361.484-.484.484-1.269,0-1.753l-.483-.483Z"/>
      <path fill="currentColor" d="M16.734,7.755c-1.204-1.204-3.107-1.285-4.405-.242,0,0,.002.002.003.002l-.827.622s-1.144.798-1.28.994c-.136.196-.733,1.33-.733,1.33-.419.705-1.015,1.39-.539,1.929.475.539,1.408.493,1.926.035,0,0,.403-.415.659-.767.09-.084.342-.462.634-.92l1.739-1.307c.068-.051.128-.107.182-.168l1.175,1.175c.053.043.1.086.144.13l3.038,3.038c1.03-1.298.946-3.19-.254-4.389l-1.461-1.461Z"/>
    </g>
  </g>
</svg>