<?xml version="1.0" encoding="UTF-8"?>
<svg id="Layer_1" xmlns="http://www.w3.org/2000/svg" version="1.1" viewBox="0 0 24 24">
  <!-- Generator: Adobe Illustrator 29.2.1, SVG Export Plug-In . SVG Version: 2.1.0 Build 116)  -->
  <defs>
    
  </defs>
  <path fill="currentColor" d="M22.695,23.212H1.298c-.204,0-.369-.165-.369-.369s.165-.369.369-.369h21.396c.204,0,.369.165.369.369s-.165.369-.369.369Z"/>
  <g>
    <ellipse fill="currentColor" cx="12.061" cy="6.714" rx="4.795" ry="5.636"/>
    <path fill="currentColor" d="M15.781,13.94c-.109-.002-.214.037-.293.112l-3.204,3.001c-.16.15-.41.149-.568-.003l-3.126-2.995c-.08-.076-.187-.117-.297-.115-4.01.091-5.284,3.339-5.365,7.377-.005.231.182.42.413.42h16.029l.015-2.124c.001-.142-.051-.277-.148-.381l-.944-1.017c-.288.151-.651.098-.883-.151l-1.717-1.85c-.277-.299-.26-.766.039-1.043s.766-.26,1.043.039l1.717,1.85c.236.254.258.63.075.907l.941,1.014c.16.173.248.398.246.634l-.015,2.122h.995c.231,0,.418-.189.413-.42-.08-4.039-1.355-7.287-5.367-7.377Z"/>
  </g>
</svg>