<?xml version="1.0" encoding="UTF-8"?><svg id="Office" xmlns="http://www.w3.org/2000/svg" viewBox="0 0 24 24"><defs></defs><path fill="currentColor" d="M4.656,2.79l.683.14v2.748h-.088c-.238,0-.389.264-.276.464l.301.552c.125.213.414.213.54,0l.301-.552c.113-.201-.025-.464-.263-.464h-.088v-2.66l5.948,1.23c.201.038.402.038.602,0l7.065-1.46c.288-.06.287-.471,0-.53l-7.065-1.448c-.201-.038-.402-.038-.602,0l-7.058,1.451c-.288.059-.288.471,0,.53Z"/><path fill="currentColor" d="M15.764,15.431c-.109-.002-.215.038-.294.112l-3.212,3.009c-.161.151-.411.149-.57-.003l-3.134-3.003c-.08-.076-.187-.118-.298-.115-4.021.092-5.298,3.348-5.379,7.396-.005.232.183.421.414.421h17.439c.232,0,.419-.19.414-.421-.081-4.049-1.358-7.306-5.381-7.396Z"/><path fill="currentColor" d="M12.024,13.233c2.473,0,4.478-2.357,4.478-5.264,0-.531-.084-1.034-.208-1.517.013-.012.027-.023.038-.037.001-.002.003-.003.004-.005.011-.014.02-.029.029-.045.001-.002.002-.004.003-.006.008-.015.014-.03.02-.045,0-.002.002-.004.002-.006.006-.017.01-.034.013-.051,0-.004.001-.008.002-.011.003-.018.005-.036.005-.055v-2.148c0-.01-.001-.02-.003-.029,0-.003-.002-.006-.003-.009-.002-.006-.004-.012-.007-.018-.002-.003-.004-.006-.005-.01-.003-.005-.006-.01-.009-.014-.002-.003-.005-.006-.007-.009-.004-.004-.008-.008-.012-.012-.003-.003-.006-.005-.009-.007-.005-.003-.009-.006-.014-.009-.003-.002-.007-.004-.01-.005-.005-.002-.011-.004-.016-.006-.004-.001-.007-.002-.011-.003-.006-.001-.013-.002-.02-.003-.003,0-.006,0-.009,0,0,0-.001,0-.002,0-.009,0-.019,0-.029.003l-3.728.757c-.042.009-.084.017-.125.024-.042.006-.084.012-.125.016-.084.008-.167.011-.251.011s-.167-.003-.251-.011c-.084-.008-.167-.02-.251-.039l-3.728-.757c-.01-.002-.019-.003-.028-.003,0,0-.001,0-.002,0-.003,0-.006,0-.01,0-.007,0-.013.001-.019.003-.004,0-.007.002-.011.003-.006.002-.011.004-.016.006-.004.002-.007.003-.01.005-.005.003-.01.006-.014.009-.003.002-.006.005-.009.007-.004.004-.008.008-.012.012-.003.003-.005.006-.007.009-.003.005-.006.009-.009.014-.002.003-.004.006-.005.01-.003.006-.005.012-.007.018,0,.003-.002.006-.003.009-.002.009-.003.019-.003.029v2.148c0,.112.051.209.129.277-.122.478-.201.978-.201,1.503,0,2.907,2.005,5.264,4.478,5.264Z"/></svg>