<?xml version="1.0" encoding="UTF-8"?>
<svg id="Layer_1" xmlns="http://www.w3.org/2000/svg" version="1.1" xmlns:xlink="http://www.w3.org/1999/xlink" viewBox="0 0 24 24">
  <!-- Generator: Adobe Illustrator 29.2.1, SVG Export Plug-In . SVG Version: 2.1.0 Build 116)  -->
  <defs>
    
    <clipPath id="clippath">
      <rect fill="none" x="0" width="24" height="24"/>
    </clipPath>
    <clipPath id="clippath-1">
      <rect fill="none" x="0" width="24" height="24"/>
    </clipPath>
    <clipPath id="clippath-5">
      <rect fill="none" x="0" width="24" height="24"/>
    </clipPath>
  </defs>
  <g clip-path="url(#clippath)">
    <g clip-path="url(#clippath-5)">
      <path fill="currentColor" d="M11.003,18.299c-.003.011-.004.024-.004.035.044,1.174,1.538,1.332,1.826.193.003-.011.004-.024.004-.035-.044-1.174-1.538-1.332-1.826-.193"/>
      <path fill="currentColor" d="M19.349,14.13H4.616c-.194,0-.351.157-.351.351v8.419c0,.194.157.351.351.351h14.732c.194,0,.351-.157.351-.351v-8.419c0-.194-.157-.351-.351-.351M13.484,18.461h-.003c-.057.004-.103.048-.109.105-.008.083-.024.164-.046.243-.015.055.01.113.062.137l.011.005c.062.03.085.107.05.166l-.183.305c-.036.059-.114.075-.17.034l-.005-.004c-.046-.034-.11-.029-.151.011-.059.057-.122.11-.19.157-.047.032-.064.093-.04.144l.006.013c.029.063-.003.137-.068.159l-.336.116c-.065.022-.136-.016-.152-.083l-.002-.007c-.013-.056-.066-.093-.123-.089-.083.006-.165.006-.246-.002-.056-.005-.109.03-.124.085l-.004.014c-.018.066-.09.103-.155.078l-.332-.128c-.064-.025-.093-.1-.063-.161l.003-.006c.026-.052.01-.114-.037-.147-.067-.048-.13-.101-.188-.159-.04-.04-.102-.046-.149-.014l-.012.008c-.057.039-.135.021-.168-.04l-.172-.311c-.033-.06-.008-.136.056-.164h.002c.053-.024.083-.082.068-.138-.009-.032-.016-.065-.023-.099-.009-.048-.015-.096-.018-.144-.004-.057-.048-.103-.105-.108h-.011c-.069-.008-.117-.072-.103-.14l.068-.349c.013-.068.082-.109.148-.09h.003c.055.017.114-.009.139-.061.036-.075.078-.147.125-.214.033-.046.028-.109-.012-.149l-.007-.007c-.048-.049-.044-.129.01-.173l.277-.224c.054-.043.133-.031.171.026.032.048.094.065.146.041.075-.034.153-.062.235-.083.055-.014.092-.065.087-.122v-.007c-.006-.069.049-.127.118-.126l.356.006c.069.001.122.062.114.13h0c-.007.057.03.11.085.126.08.023.158.052.233.087.051.024.112.009.145-.037l.005-.007c.04-.056.12-.066.172-.02l.268.233c.052.045.054.125.004.173h0c-.042.04-.048.104-.016.152.046.068.087.14.122.216.023.052.08.079.135.065l.009-.002c.067-.017.134.027.145.095l.055.351c.011.068-.04.131-.108.135"/>
      <path fill="currentColor" d="M16.495,5.283c-.03-.573-.233-.88-.5-1.047-.056-.337-.2-.957-.557-1.582-.485-.849-1.464-1.86-3.376-1.86s-2.891,1.012-3.376,1.86c-.367.643-.509,1.281-.561,1.611-.245.172-.429.477-.457,1.018-.004.079-.004,1.006,0,1.082.054,1.095.78,1.33,1.295,1.33.065,0,.182-.013.182-.216v-3.25c0-.139-.045-.193-.182-.193-.095.005-.194.013-.293.028.072-.315.207-.75.455-1.179.611-1.059,1.6-1.596,2.937-1.596s2.326.537,2.937,1.596c.247.427.382.859.454,1.174-.085-.011-.17-.018-.252-.022-.138,0-.182.053-.182.193v3.25c0,.203.117.216.182.216.118,0,.248-.013.378-.045-.001.08-.002.166-.002.259,0,.198-.034.329-.096.37-.061.041-.19.041-.316.041h-1.977c-.137,0-.248.111-.248.248s.111.248.248.248h1.977c.317,0,.907,0,.907-.907,0-.205.003-.378.007-.518.223-.201.391-.522.416-1.026.004-.076.004-1.003,0-1.082"/>
      <path fill="currentColor" d="M9.517,7.908c.584.91,1.511,1.499,2.556,1.499.299,0,.589-.048.863-.139-.286-.103-.492-.378-.492-.7,0-.41.334-.744.744-.744h1.409c-.048-.1-.074-.217-.074-.346v-3.25c0-.253.098-.452.266-.57-.565-1.064-1.57-1.773-2.716-1.773s-2.146.705-2.711,1.764c.176.116.279.319.279.578v3.25c0,.167-.045.313-.123.429"/>
      <path fill="currentColor" d="M17.932,13.5c-.386-1.754-1.366-2.988-3.377-3.033-.072-.002-.143.025-.196.075l-2.137,2.002c-.107.1-.273.099-.379-.002l-2.085-1.998c-.053-.051-.124-.078-.198-.077-2.01.046-2.989,1.28-3.375,3.033h11.747Z"/>
    </g>
  </g>
</svg>