<?xml version="1.0" encoding="UTF-8"?>
<svg id="Layer_1" xmlns="http://www.w3.org/2000/svg" version="1.1" viewBox="0 0 24 24">
  <!-- Generator: Adobe Illustrator 29.2.1, SVG Export Plug-In . SVG Version: 2.1.0 Build 116)  -->
  <defs>
    
  </defs>
  <path fill="currentColor" d="M6.364,13.361h11.452c.06,0,.104-.056.089-.114-.434-1.652-1.527-2.794-3.477-2.838-.074-.002-.145.025-.199.076l-1.948,1.947c-.109.102-.278.101-.386-.002l-1.94-1.943c-.054-.052-.127-.08-.202-.078-1.949.044-3.044,1.187-3.478,2.838-.015.058.029.114.089.114Z"/>
  <path fill="currentColor" d="M12.078,5.041h0c.433.004,2.744-.418,3.473-.553-.384-1.824-1.785-3.177-3.455-3.177s-3.075,1.356-3.457,3.183c.767.142,3.015.552,3.439.547h0Z"/>
  <path fill="currentColor" d="M12.756,5.524c-.044.009-.064.058-.043.097.443.797,2.154.159,2.235-.468.001-.055-.024-.098-.075-.087l-2.117.458Z"/>
  <path fill="currentColor" d="M12.096,9.679c1.966,0,3.56-1.873,3.56-4.184,0-.021,0-.042,0-.063-.234.149-.781.685-1.386.988-.532.282-1.159.313-1.629-.063-.219-.219-.395-.28-.563-.282h-.001c-.168.001-.343.062-.562.281-.47.376-1.096.345-1.629.063-.575-.288-1.098-.786-1.349-.963,0,.013,0,.026,0,.039,0,2.311,1.594,4.184,3.56,4.184Z"/>
  <path fill="currentColor" d="M9.207,5.153c.081.628,1.792,1.265,2.235.468.022-.039,0-.088-.043-.097l-2.117-.458c-.051-.011-.077.032-.075.087Z"/>
  <path fill="currentColor" d="M12.281,18.1c0-.102-.083-.185-.185-.185s-.186.083-.186.185h.371Z"/>
  <circle fill="currentColor" cx="11.539" cy="17.543" r=".371"/>
  <circle fill="currentColor" cx="12.652" cy="17.543" r=".371"/>
  <path fill="currentColor" d="M19.301,13.824H4.878c-.398,0-.721.323-.721.721v7.933c0,.398.323.721.721.721h14.424c.398,0,.721-.323.721-.721v-7.933c0-.398-.323-.721-.721-.721ZM12.138,15.689c.758.021,1.388.625,1.438,1.382.039.591-.268,1.114-.739,1.386v.385c0,.102-.083.186-.185.186h-1.113c-.102,0-.185-.083-.185-.186v-.385c-.443-.257-.742-.736-.742-1.285,0-.834.687-1.507,1.526-1.483ZM14.262,19.516l-.346.133c-.048.018-.101-.005-.12-.053l-.067-.173c-.018-.048-.072-.072-.12-.053l-1.029.396.968.372c.048.018.102-.005.12-.053l.067-.173c.018-.048.072-.072.12-.053l.346.133c.048.018.072.072.053.12l-.068.177c-.018.048-.072.067-.12.049-.047-.017-.1.007-.118.054l-.067.173c-.019.048.007.101.055.12.047.019.07.072.052.119l-.067.173c-.018.048-.072.072-.12.053l-.346-.133c-.048-.018-.072-.072-.053-.12l.067-.173c.018-.048-.005-.101-.053-.12l-1.267-.488-1.369.527c-.048.018-.072.072-.053.12l.067.173c.018.048-.005.102-.053.12l-.346.133c-.048.018-.102-.005-.12-.053l-.067-.173c-.018-.048.005-.101.053-.12.048-.018.072-.072.053-.12l-.068-.177c-.018-.048-.072-.067-.12-.049-.047.017-.1-.007-.118-.054l-.067-.173c-.018-.048.005-.102.053-.12l.346-.133c.048-.018.101.005.12.053l.067.173c.018.048.072.072.12.053l.986-.379-.083-.032-.902-.347c-.048-.018-.102.005-.12.053l-.067.173c-.018.048-.072.072-.12.053l-.346-.133c-.048-.018-.072-.072-.053-.12l.094-.244c.013-.035.042-.03.081-.015.08.034.114.028.142-.042.012-.028.056-.153.056-.153.019-.048-.007-.101-.055-.12-.047-.019-.07-.072-.052-.119l.067-.173c.018-.048.072-.072.12-.053l.346.133c.048.018.072.072.053.12l-.067.173c-.018.048.005.101.053.12l1.286.495,1.412-.543c.048-.018.072-.072.053-.12l-.067-.173c-.018-.048.005-.101.053-.12l.346-.133c.048-.018.101.005.12.053l.067.173c.018.048-.005.101-.053.12-.048.018-.072.072-.053.12l.068.177c.018.048.072.067.12.049.047-.017.1.007.118.054l.067.173c.018.048-.005.101-.053.12Z"/>
</svg>