<?xml version="1.0" encoding="UTF-8"?>
<svg id="Layer_1" xmlns="http://www.w3.org/2000/svg" version="1.1" xmlns:xlink="http://www.w3.org/1999/xlink" viewBox="0 0 24 24">
  <!-- Generator: Adobe Illustrator 29.2.1, SVG Export Plug-In . SVG Version: 2.1.0 Build 116)  -->
  <defs>
    
    <clipPath id="clippath">
      <rect fill="none" x="0" width="24" height="24"/>
    </clipPath>
    <clipPath id="clippath-1">
      <rect fill="none" x="0" width="24" height="24"/>
    </clipPath>
    <clipPath id="clippath-5">
      <rect fill="none" x="0" width="24" height="24"/>
    </clipPath>
  </defs>
  <g clip-path="url(#clippath)">
    <g clip-path="url(#clippath-5)">
      <path fill="currentColor" d="M21.75,4.5H2.25c-.828,0-1.5.672-1.5,1.5v12c0,.828.672,1.5,1.5,1.5h19.5c.828,0,1.5-.672,1.5-1.5V6c0-.828-.672-1.5-1.5-1.5M5.963,6.75c.859,0,1.556.819,1.556,1.829s-.697,1.829-1.556,1.829-1.556-.819-1.556-1.829.697-1.829,1.556-1.829M4.741,10.923c.036,0,.07.013.096.037l1.014.972c.051.049.132.05.184.001l1.039-.974c.026-.024.06-.037.095-.036,1.302.029,1.715,1.083,1.741,2.393.002.075-.059.136-.134.136H3.134c-.075,0-.136-.061-.134-.136.026-1.31.439-2.364,1.741-2.393M21,16.875c0,.207-.168.375-.375.375H3.375c-.207,0-.375-.168-.375-.375v-.75c0-.207.168-.375.375-.375h17.25c.207,0,.375.168.375.375v.75ZM20.625,13.453h-8.25c-.207,0-.375-.168-.375-.375s.168-.375.375-.375h8.25c.207,0,.375.168.375.375s-.168.375-.375.375M20.625,11.203h-8.25c-.207,0-.375-.168-.375-.375s.168-.375.375-.375h8.25c.207,0,.375.168.375.375s-.168.375-.375.375M20.625,9.75h-8.25c-.207,0-.375-.168-.375-.375s.168-.375.375-.375h8.25c.207,0,.375.168.375.375s-.168.375-.375.375"/>
    </g>
  </g>
</svg>