<?xml version="1.0" encoding="UTF-8"?>
<svg id="Layer_1" xmlns="http://www.w3.org/2000/svg" version="1.1" xmlns:xlink="http://www.w3.org/1999/xlink" viewBox="0 0 24 24">
  <!-- Generator: Adobe Illustrator 29.2.1, SVG Export Plug-In . SVG Version: 2.1.0 Build 116)  -->
  <defs>
    
    <clipPath id="clippath">
      <rect fill="none" x="0" width="24" height="24"/>
    </clipPath>
    <clipPath id="clippath-1">
      <rect fill="none" x="0" width="24" height="24"/>
    </clipPath>
    <clipPath id="clippath-3">
      <rect fill="none" x="0" width="24" height="24"/>
    </clipPath>
  </defs>
  <g clip-path="url(#clippath)">
    <g clip-path="url(#clippath-3)">
      <path fill="currentColor" d="M12,.75C5.787.75.75,5.787.75,12s5.037,11.25,11.25,11.25,11.25-5.037,11.25-11.25S18.213.75,12,.75M11.934,6.78c.183-.226.41-.348.682-.365.21-.013.387.045.532.176.144.131.223.304.237.521.019.298-.068.568-.26.808-.193.24-.418.368-.675.385-.203.013-.378-.048-.522-.182-.145-.134-.224-.316-.239-.547-.019-.305.063-.571.246-.797M13.549,15.178c-.633.667-1.106,1.102-1.417,1.307-.338.222-.618.34-.84.354-.195.012-.353-.039-.475-.154-.122-.115-.189-.281-.203-.498-.044-.695.266-2.42.93-5.176.031-.13.043-.246.037-.346-.007-.111-.061-.164-.161-.157-.111.007-.235.06-.371.157-.122.088-.374.341-.755.759-.079.087-.211.103-.308.037-.117-.079-.139-.241-.048-.349.454-.542.878-.941,1.272-1.198.442-.287.824-.441,1.146-.462.178-.011.316.019.416.091.099.072.153.175.162.308.01.161-.127.857-.411,2.086-.463,2.011-.682,3.22-.657,3.626.005.078.028.142.071.192.042.05.085.074.13.071.165-.01.55-.332,1.154-.964.084-.087.221-.094.313-.016.099.085.106.235.016.33"/>
    </g>
  </g>
</svg>