<?xml version="1.0" encoding="UTF-8"?>
<svg id="Layer_1" xmlns="http://www.w3.org/2000/svg" version="1.1" xmlns:xlink="http://www.w3.org/1999/xlink" viewBox="0 0 24 24">
  <!-- Generator: Adobe Illustrator 29.2.1, SVG Export Plug-In . SVG Version: 2.1.0 Build 116)  -->
  <defs>
    
    <clipPath id="clippath">
      <rect fill="none" x="0" width="24" height="24"/>
    </clipPath>
    <clipPath id="clippath-1">
      <rect fill="none" x="0" width="24" height="24"/>
    </clipPath>
  </defs>
  <g clip-path="url(#clippath)">
    <g clip-path="url(#clippath-1)">
      <path fill="currentColor" d="M22.5,3.75H1.502c-.414,0-.75.336-.75.75v12.282c0,.052.042.094.094.094h22.311c.052,0,.094-.042.094-.094V4.5c0-.414-.336-.75-.75-.75M22.031,15.749H1.97c-.052,0-.094-.042-.094-.094V4.969c0-.052.042-.094.094-.094h20.061c.052,0,.094.042.094.094v10.687c0,.052-.042.094-.094.094"/>
      <path fill="currentColor" d="M15.563,21.375h-1.687c-.207,0-.375-.168-.375-.375v-1.406c0-.052-.042-.094-.094-.094h-2.812c-.052,0-.094.042-.094.094v1.406c0,.207-.168.375-.375.375h-1.687c-.311,0-.562.252-.562.562s.252.562.562.562h7.124c.311,0,.562-.252.562-.562s-.252-.562-.562-.562"/>
      <path fill="currentColor" d="M22.5,18.75H1.502c-.414,0-.75-.336-.75-.75v-.281c0-.052.042-.094.094-.094h22.311c.052,0,.094.042.094.094v.281c0,.414-.336.75-.75.75"/>
      <path fill="currentColor" d="M12.081,6.123c1.074,0,1.945,1.024,1.945,2.286s-.871,2.286-1.945,2.286-1.945-1.024-1.945-2.286.871-2.286,1.945-2.286M8.377,14.332c.033-1.638.549-2.955,2.176-2.992.045-.001.088.016.12.047l1.268,1.215c.064.062.166.062.231.001l1.3-1.217c.032-.03.075-.046.119-.045,1.628.036,2.144,1.354,2.177,2.992.002.094-.074.17-.168.17h-7.055c-.094,0-.169-.077-.168-.17"/>
      <path fill="currentColor" d="M6.828,10.54c.93,0,1.684-.886,1.684-1.98s-.754-1.98-1.684-1.98-1.685.886-1.685,1.98.754,1.98,1.685,1.98"/>
      <path fill="currentColor" d="M8.257,11.855c.155-.248.34-.459.552-.634-.196-.074-.419-.116-.675-.122-.038,0-.075.013-.103.039l-1.126,1.054c-.056.053-.144.052-.2-.001l-1.098-1.052c-.028-.027-.066-.041-.104-.04-1.409.032-1.856,1.173-1.885,2.591-.002.081.064.148.145.148h3.917c.065-.816.254-1.468.575-1.982"/>
      <path fill="currentColor" d="M18.497,11.098c-.038,0-.075.013-.103.039l-1.126,1.054c-.056.053-.144.052-.2-.001l-1.098-1.052c-.028-.027-.066-.041-.104-.04-.212.005-.403.035-.573.088.229.181.428.404.593.668.322.515.511,1.167.576,1.983h3.775c.081,0,.147-.066.145-.148-.028-1.419-.476-2.56-1.885-2.591"/>
      <path fill="currentColor" d="M17.19,10.54c.93,0,1.684-.886,1.684-1.98s-.754-1.98-1.684-1.98-1.685.886-1.685,1.98.754,1.98,1.685,1.98"/>
    </g>
  </g>
</svg>