<?xml version="1.0" encoding="UTF-8"?>
<svg id="Layer_1" xmlns="http://www.w3.org/2000/svg" version="1.1" xmlns:xlink="http://www.w3.org/1999/xlink" viewBox="0 0 24 24">
  <!-- Generator: Adobe Illustrator 29.2.1, SVG Export Plug-In . SVG Version: 2.1.0 Build 116)  -->
  <defs>
    
    <clipPath id="clippath">
      <rect fill="none" x="0" width="24" height="24"/>
    </clipPath>
    <clipPath id="clippath-1">
      <rect fill="none" x="0" width="24" height="24"/>
    </clipPath>
    <clipPath id="clippath-3">
      <rect fill="none" x="0" width="24" height="24"/>
    </clipPath>
  </defs>
  <g clip-path="url(#clippath)">
    <g clip-path="url(#clippath-3)">
      <path fill="currentColor" d="M17.167,6.262l1.739-1.744c.035-.043.074-.082.117-.117.353-.289.873-.236,1.162.117.289.353.236.873-.117,1.162l-1.744,1.739c-.154.154-.362.24-.579.241l.002.003c-.216,0-.424-.087-.577-.239-.321-.32-.322-.84-.002-1.161"/>
      <path fill="currentColor" d="M11.177,2.323v-.003c0-.453.369-.82.823-.819.453,0,.82.369.819.823v2.463c0,.453-.368.821-.821.821h0c-.453,0-.821-.368-.82-.822v-2.462Z"/>
      <path fill="currentColor" d="M5.022,12.173c0,.453-.368.821-.822.82H1.738c-.452,0-.818-.367-.819-.819,0-.453.366-.822.819-.823h2.463c.453,0,.821.368.821.821h0Z"/>
      <path fill="currentColor" d="M5.673,7.417l-1.739-1.744c-.248-.304-.248-.741,0-1.045.289-.353.809-.405,1.162-.117l1.739,1.744c.321.321.321.841,0,1.162-.321.321-.841.321-1.162,0"/>
      <path fill="currentColor" d="M14.387,20.825c0,.184-.056.363-.158.516l-.496.745c-.173.259-.463.414-.774.413h-1.794c-.311,0-.601-.155-.774-.413l-.497-.748c-.102-.152-.156-.331-.156-.514h-.001v-.751h0c0-.088.071-.159.159-.159h4.332c.088,0,.159.071.159.159v.752Z"/>
      <path fill="currentColor" d="M15.43,8.975c-2.126-1.861-5.358-1.646-7.219.48-1.688,1.929-1.688,4.809,0,6.738.641.756,1.142,1.621,1.48,2.553.022.064.082.107.15.107h4.439c.068,0,.128-.043.15-.107.338-.932.839-1.796,1.48-2.553,1.861-2.126,1.646-5.358-.48-7.219M12.06,10.504c-1.283.002-2.323,1.042-2.324,2.325,0,.257-.208.465-.465.465s-.465-.208-.465-.465c.003-1.796,1.458-3.252,3.254-3.254.257,0,.465.208.465.465s-.208.465-.465.465"/>
      <path fill="currentColor" d="M22.258,12.993h-2.466c-.453,0-.82-.369-.819-.823s.369-.82.823-.819h2.466c.453,0,.82.369.819.823,0,.453-.369.82-.823.819"/>
    </g>
  </g>
</svg>