<?xml version="1.0" encoding="UTF-8"?>
<svg id="Layer_1" xmlns="http://www.w3.org/2000/svg" version="1.1" xmlns:xlink="http://www.w3.org/1999/xlink" viewBox="0 0 24 24">
  <!-- Generator: Adobe Illustrator 29.2.1, SVG Export Plug-In . SVG Version: 2.1.0 Build 116)  -->
  <defs>
    
    <clipPath id="clippath">
      <rect fill="none" x="0" width="24" height="24"/>
    </clipPath>
    <clipPath id="clippath-1">
      <rect fill="none" x="0" width="24" height="24"/>
    </clipPath>
    <clipPath id="clippath-5">
      <rect fill="none" x="0" width="24" height="24"/>
    </clipPath>
  </defs>
  <g clip-path="url(#clippath)">
    <g clip-path="url(#clippath-5)">
      <path fill="currentColor" d="M12,.75c-4.15,0-7.515,3.364-7.515,7.515,0,5.246,5.164,12.071,6.93,14.252.301.371.867.37,1.166-.002,1.764-2.192,6.933-9.055,6.933-14.251,0-4.15-3.364-7.515-7.515-7.515M12.067,11.03c-1.996.037-3.621-1.588-3.584-3.584.035-1.881,1.569-3.415,3.45-3.45,1.996-.037,3.621,1.588,3.584,3.584-.035,1.881-1.569,3.415-3.45,3.45"/>
    </g>
  </g>
</svg>