<?xml version="1.0" encoding="UTF-8"?>
<svg id="Layer_1" xmlns="http://www.w3.org/2000/svg" version="1.1" viewBox="0 0 24 24">
  <!-- Generator: Adobe Illustrator 29.2.1, SVG Export Plug-In . SVG Version: 2.1.0 Build 116)  -->
  <defs>
    
  </defs>
  <path fill="currentColor" d="M20.023,9.353h-.228c-.117,0-.212-.093-.215-.209-.111-4.029-3.423-7.272-7.479-7.272s-7.368,3.243-7.479,7.272c-.003.117-.099.209-.215.209h-.228c-.65,0-1.178.527-1.178,1.178v11.292c0,.65.527,1.178,1.178,1.178h15.845c.65,0,1.178-.527,1.178-1.178v-11.292c0-.65-.527-1.178-1.178-1.178ZM7.172,9.353c-.122,0-.221-.102-.216-.224.055-1.291.583-2.497,1.503-3.417.961-.961,2.285-1.508,3.644-1.508.019,0,.039,0,.058,0,1.352.015,2.623.551,3.58,1.508.919.92,1.448,2.125,1.503,3.417.005.122-.094.224-.216.224H7.172ZM13.863,14.829c0,.577-.277,1.089-.706,1.411-.112.084-.177.218-.177.358v2.057c0,.477-.37.883-.847.9-.5.018-.912-.382-.912-.879v-2.078c0-.144-.071-.277-.186-.365-.45-.342-.731-.895-.694-1.511.052-.876.756-1.59,1.632-1.652,1.031-.072,1.89.743,1.89,1.758Z"/>
</svg>