<?xml version="1.0" encoding="UTF-8"?>
<svg id="Layer_1" xmlns="http://www.w3.org/2000/svg" version="1.1" xmlns:xlink="http://www.w3.org/1999/xlink" viewBox="0 0 24 24">
  <!-- Generator: Adobe Illustrator 29.2.1, SVG Export Plug-In . SVG Version: 2.1.0 Build 116)  -->
  <defs>
    
    <clipPath id="clippath">
      <rect fill="none" x="0" width="24" height="24"/>
    </clipPath>
    <clipPath id="clippath-1">
      <rect fill="none" x="0" width="24" height="24"/>
    </clipPath>
    <clipPath id="clippath-5">
      <rect fill="none" x="0" width="24" height="24"/>
    </clipPath>
  </defs>
  <g clip-path="url(#clippath)">
    <g clip-path="url(#clippath-5)">
      <path fill="currentColor" d="M20.225,8.997H3.722c-1.651,0-2.99,1.339-2.99,2.99h0c0,1.651,1.339,2.99,2.99,2.99h16.503c1.651,0,2.99-1.339,2.99-2.99h0c0-1.651-1.338-2.99-2.99-2.99M2.988,12.946c-.526,0-.952-.426-.952-.952s.426-.952.952-.952.952.426.952.952-.426.952-.952.952M5.991,12.946c-.526,0-.952-.426-.952-.952s.426-.952.952-.952.952.426.952.952-.426.952-.952.952M8.994,12.946c-.526,0-.952-.426-.952-.952s.426-.952.952-.952.952.426.952.952-.426.952-.952.952M11.997,12.946c-.526,0-.952-.426-.952-.952s.426-.952.952-.952.952.426.952.952-.426.952-.952.952M15,12.946c-.526,0-.952-.426-.952-.952s.426-.952.952-.952.952.426.952.952-.426.952-.952.952M18.003,12.946c-.526,0-.952-.426-.952-.952s.426-.952.952-.952.952.426.952.952-.426.952-.952.952M21.006,12.946c-.526,0-.952-.426-.952-.952s.426-.952.952-.952.952.426.952.952-.426.952-.952.952"/>
    </g>
  </g>
</svg>