<?xml version="1.0" encoding="UTF-8"?>
<svg id="Layer_1" xmlns="http://www.w3.org/2000/svg" version="1.1" xmlns:xlink="http://www.w3.org/1999/xlink" viewBox="0 0 24 24">
  <!-- Generator: Adobe Illustrator 29.2.1, SVG Export Plug-In . SVG Version: 2.1.0 Build 116)  -->
  <defs>
    
    <clipPath id="clippath">
      <rect fill="none" x="0" width="24" height="24"/>
    </clipPath>
    <clipPath id="clippath-1">
      <rect fill="none" x="0" width="24" height="24"/>
    </clipPath>
    <clipPath id="clippath-5">
      <rect fill="none" x="0" width="24" height="24"/>
    </clipPath>
  </defs>
  <g clip-path="url(#clippath)">
    <g clip-path="url(#clippath-5)">
      <path fill="currentColor" d="M8.965,8.812c0,.007-.001.014-.002.021-.003.045-.006.091-.008.136,0,.007,0,.014,0,.021-.002.047-.003.095-.003.143,0,.033,0,.066.001.099,0,.01,0,.021.001.031,0,.022.001.045.003.067,0,.012.001.024.002.037.001.021.002.042.004.062,0,.012.002.025.003.037.002.021.004.042.006.063.001.011.002.023.003.034.002.024.005.048.008.071.001.008.002.016.003.025.004.032.009.064.013.096,0,.003.001.006.002.01.004.029.009.057.014.085.002.009.003.018.005.028.004.022.008.044.013.067.002.01.004.021.006.031.004.021.009.042.014.063.002.01.005.02.007.03.005.022.011.045.016.067.002.008.004.017.006.025.007.028.015.056.023.083,0,.002.001.004.002.007.009.031.018.063.028.094,0,.001,0,.003.001.004.009.028.018.057.028.085.002.006.004.013.007.019.008.023.016.047.025.07.003.007.005.014.008.021.009.023.017.045.026.068.003.006.005.013.008.019.01.025.02.05.031.075.001.003.003.007.004.01.038.087.078.172.121.255.002.003.003.006.005.009.013.024.026.048.039.072.002.004.004.007.006.011.014.024.028.048.042.072.001.002.003.005.004.007.064.107.133.21.206.308,0,0,0,.001.001.002.018.024.036.047.054.071,0,0,.002.002.002.003.544.686,1.32,1.115,2.181,1.115.699,0,1.342-.283,1.85-.756.005-.005.01-.01.016-.015.016-.015.031-.03.046-.045.006-.006.012-.012.018-.018.014-.014.029-.029.043-.044.006-.006.012-.012.018-.019.015-.016.03-.032.045-.048.005-.005.009-.01.014-.015.039-.043.077-.088.114-.134.004-.005.008-.01.011-.014.014-.018.029-.036.042-.054.005-.007.011-.014.016-.021.012-.017.025-.033.037-.05.006-.008.011-.015.016-.023.012-.017.024-.034.036-.052.005-.007.01-.014.014-.021.014-.021.028-.042.042-.064.002-.003.005-.007.007-.01.016-.026.032-.051.048-.077.002-.004.005-.008.007-.012.013-.022.026-.043.038-.065.004-.008.009-.016.013-.024.01-.018.02-.037.03-.055.005-.009.01-.018.014-.027.01-.018.019-.037.028-.055.004-.009.009-.018.013-.026.01-.02.02-.041.03-.061.003-.007.007-.014.01-.021.013-.028.026-.056.038-.084,0,0,0,0,0,0,.012-.028.024-.055.035-.083.003-.008.007-.017.01-.025.008-.02.016-.04.024-.06.004-.01.008-.02.011-.03.007-.019.014-.038.021-.058.004-.01.007-.021.011-.031.007-.02.014-.04.02-.061.003-.009.006-.019.009-.028.008-.026.016-.052.024-.079.001-.004.002-.007.003-.011.009-.03.017-.061.025-.091.002-.008.004-.017.006-.025.006-.022.011-.044.017-.067.003-.011.005-.022.008-.033.005-.02.009-.04.013-.061.002-.012.005-.023.007-.035.004-.02.008-.041.012-.061.002-.011.004-.022.006-.033.004-.023.008-.047.012-.07.001-.008.003-.017.004-.025.005-.032.009-.064.014-.096,0-.006.002-.013.002-.019.003-.026.006-.051.009-.077.001-.011.002-.022.003-.034.002-.021.004-.043.006-.064,0-.012.002-.025.003-.037.002-.021.003-.042.004-.063,0-.012.001-.025.002-.037.001-.022.002-.045.003-.068,0-.011,0-.021.001-.032,0-.033.001-.066.001-.1,0-.029,0-.057,0-.086,0-.01,0-.02,0-.03,0-.018-.001-.036-.002-.054,0-.012-.001-.025-.002-.037,0-.016-.002-.031-.003-.047,0-.014-.002-.027-.003-.041-.001-.014-.002-.028-.003-.042-.001-.014-.002-.029-.004-.043-.001-.013-.002-.026-.004-.038-.002-.015-.003-.031-.005-.046-.001-.011-.003-.023-.004-.034-.002-.016-.004-.032-.006-.049-.001-.01-.003-.019-.004-.029-.234-1.662-1.462-2.93-2.942-2.93-1.512,0-2.761,1.322-2.956,3.037,0,.003,0,.006-.001.009-.005.046-.009.092-.013.138"/>
      <path fill="currentColor" d="M14.249,13.628c-.068-.001-.133.023-.182.07l-1.993,1.867c-.1.093-.255.092-.353-.002l-1.944-1.863c-.049-.047-.116-.073-.185-.071-2.495.057-3.287,2.077-3.337,4.588-.003.144.113.261.257.261h10.818c.144,0,.26-.118.257-.261-.05-2.512-.843-4.532-3.338-4.588"/>
      <path fill="currentColor" d="M20.857,15.25c-.045-.001-.089.016-.122.047l-.366.343c.365.663.554,1.529.576,2.641.002.075-.01.149-.034.218h2.01c.096,0,.174-.079.172-.175-.034-1.683-.564-3.036-2.236-3.073"/>
      <path fill="currentColor" d="M17.998,13.267c-.101.119-.209.228-.324.327.144.24.326.446.535.608.406.048.772.161,1.092.339.026.014.052.029.077.045,1.07-.045,1.925-1.078,1.925-2.347,0-1.297-.894-2.348-1.998-2.348-.223,0-.437.043-.637.122.087.315.132.647.132.986,0,.853-.285,1.659-.803,2.268"/>
      <path fill="currentColor" d="M3.474,15.639l-.366-.343c-.033-.031-.077-.048-.122-.047-1.672.037-2.203,1.391-2.236,3.073-.002.096.076.175.172.175h2.01c-.024-.069-.035-.143-.034-.218.022-1.111.211-1.978.576-2.641"/>
      <path fill="currentColor" d="M4.464,14.586c.025-.015.051-.03.077-.045.32-.178.687-.291,1.092-.339.209-.162.391-.368.535-.608-.114-.099-.222-.208-.324-.327-.518-.609-.803-1.414-.803-2.268,0-.34.045-.671.132-.986-.2-.079-.414-.122-.637-.122-1.103,0-1.998,1.051-1.998,2.348,0,1.268.856,2.302,1.925,2.347"/>
      <path fill="currentColor" d="M14.371,11.891c-.15.176-.312.334-.486.474.155.327.364.614.612.845.575.041,1.088.186,1.528.43.084.047.166.098.246.152,1.184-.17,2.101-1.355,2.101-2.793,0-1.554-1.072-2.814-2.394-2.814-.246,0-.483.044-.706.124.049.268.075.544.075.824,0,1.038-.347,2.018-.976,2.757"/>
      <path fill="currentColor" d="M17.836,14.606c-.054-.001-.107.019-.146.056l-.359.337c.209.39.372.845.485,1.356.12.543.188,1.167.202,1.853.002.102-.018.2-.058.29h2.349c.115,0,.209-.094.206-.21-.04-2.016-.676-3.637-2.679-3.682"/>
      <path fill="currentColor" d="M7.572,13.792c.079-.054.161-.105.245-.152.44-.245.954-.389,1.529-.43.253-.234.464-.527.62-.861-.166-.135-.322-.288-.466-.458-.629-.74-.976-1.719-.976-2.757,0-.277.025-.549.073-.814-.231-.087-.476-.134-.731-.134-1.322,0-2.394,1.26-2.394,2.813,0,1.437.917,2.623,2.101,2.793"/>
      <path fill="currentColor" d="M6.513,14.998l-.359-.337c-.04-.037-.092-.057-.146-.056-2.003.045-2.639,1.666-2.679,3.682-.002.115.091.21.206.21h2.349c-.04-.09-.06-.189-.058-.29.014-.686.082-1.31.202-1.853.113-.512.276-.967.486-1.357"/>
    </g>
  </g>
</svg>