<?xml version="1.0" encoding="UTF-8"?>
<svg id="Layer_1" xmlns="http://www.w3.org/2000/svg" version="1.1" xmlns:xlink="http://www.w3.org/1999/xlink" viewBox="0 0 24 24">
  <!-- Generator: Adobe Illustrator 29.2.1, SVG Export Plug-In . SVG Version: 2.1.0 Build 116)  -->
  <defs>
    
    <clipPath id="clippath">
      <rect fill="none" x="0" width="24" height="24"/>
    </clipPath>
    <clipPath id="clippath-1">
      <rect fill="none" x="0" width="24" height="24"/>
    </clipPath>
    <clipPath id="clippath-5">
      <rect fill="none" x="0" width="24" height="24"/>
    </clipPath>
  </defs>
  <g clip-path="url(#clippath)">
    <g clip-path="url(#clippath-5)">
      <path fill="currentColor" d="M11.896,7.252c1.522,0,2.756,1.45,2.756,3.239s-1.234,3.239-2.756,3.239-2.756-1.45-2.756-3.239,1.234-3.239,2.756-3.239M6.648,18.884c.046-2.321.778-4.187,3.083-4.239.063-.001.125.022.171.066l1.796,1.721c.091.087.235.088.327.002l1.841-1.725c.046-.043.106-.066.169-.064,2.306.052,3.038,1.918,3.085,4.24.003.133-.105.241-.238.241H6.885c-.133,0-.24-.109-.238-.241"/>
      <path fill="currentColor" d="M5.998,10.979c1.522,0,2.756-1.45,2.756-3.239s-1.234-3.239-2.756-3.239-2.756,1.45-2.756,3.239,1.234,3.239,2.756,3.239"/>
      <path fill="currentColor" d="M18.042,10.979c1.522,0,2.756-1.45,2.756-3.239s-1.234-3.239-2.756-3.239-2.756,1.45-2.756,3.239,1.234,3.239,2.756,3.239"/>
      <path fill="currentColor" d="M14.029,13.894c.007,0,.015,0,.022,0,.679.015,1.283.167,1.795.452.49.272.899.666,1.213,1.169.15.239.278.502.386.789.015.041.054.069.098.069h5.618c.058,0,.106-.048.105-.106-.02-2.403-.747-4.353-3.143-4.376-.027,0-.053.01-.073.029l-1.972,1.847c-.041.038-.104.038-.144,0l-1.926-1.846c-.02-.019-.047-.03-.074-.029-.263.002-.504.029-.727.076-.035.008-.063.033-.076.067-.167.453-.407.872-.715,1.234-.138.163-.287.31-.444.442-.071.059-.035.173.057.184h0Z"/>
      <path fill="currentColor" d="M9.75,13.895c.1.003.145-.122.068-.186-.156-.131-.304-.278-.442-.441-.317-.373-.562-.805-.729-1.274-.013-.037-.045-.064-.084-.069-.153-.02-.313-.032-.483-.033-.027,0-.053.01-.073.029l-1.972,1.847c-.041.038-.104.038-.144,0l-1.926-1.846c-.02-.019-.047-.03-.074-.029-2.395.023-3.122,1.974-3.142,4.376,0,.058.047.106.105.106h5.369c.044,0,.083-.028.098-.069.108-.287.236-.549.386-.788.315-.503.723-.897,1.213-1.169.513-.285,1.116-.437,1.795-.452.012,0,.024,0,.036,0"/>
    </g>
  </g>
</svg>