<?xml version="1.0" encoding="UTF-8"?>
<svg id="Layer_1" xmlns="http://www.w3.org/2000/svg" version="1.1" xmlns:xlink="http://www.w3.org/1999/xlink" viewBox="0 0 24 24">
  <!-- Generator: Adobe Illustrator 29.2.1, SVG Export Plug-In . SVG Version: 2.1.0 Build 116)  -->
  <defs>
    
    <clipPath id="clippath">
      <rect fill="none" x="0" width="24" height="24"/>
    </clipPath>
    <clipPath id="clippath-1">
      <rect fill="none" x="0" width="24" height="24"/>
    </clipPath>
    <clipPath id="clippath-5">
      <rect fill="none" x="0" width="24" height="24"/>
    </clipPath>
  </defs>
  <g clip-path="url(#clippath)">
    <g clip-path="url(#clippath-5)">
      <path fill="currentColor" d="M7.649,3.892c2.001,0,3.623,1.906,3.623,4.258s-1.622,4.258-3.623,4.258-3.623-1.906-3.623-4.258,1.622-4.258,3.623-4.258M.75,19.183c.061-3.051,1.023-5.504,4.053-5.573.083-.002.164.029.224.087l2.361,2.263c.12.115.308.116.429.002l2.421-2.268c.06-.056.14-.086.222-.084,3.032.068,3.994,2.522,4.055,5.573.003.174-.138.317-.312.317H1.062c-.174,0-.316-.143-.312-.317"/>
      <path fill="currentColor" d="M17.307,13.343c1.731,0,3.135-1.65,3.135-3.685s-1.403-3.685-3.135-3.685-3.135,1.65-3.135,3.685,1.403,3.685,3.135,3.685"/>
      <path fill="currentColor" d="M19.74,14.403c-.071-.002-.14.024-.192.073l-2.094,1.962c-.105.098-.268.097-.372-.002l-2.043-1.958c-.052-.05-.122-.077-.194-.075-.319.007-.611.045-.879.111.095.123.186.251.27.387.655,1.047.991,2.45,1.027,4.288.002.107-.012.212-.04.311h7.754c.151,0,.273-.124.27-.275-.053-2.64-.886-4.764-3.509-4.822"/>
    </g>
  </g>
</svg>