<?xml version="1.0" encoding="UTF-8"?>
<svg id="Layer_1" xmlns="http://www.w3.org/2000/svg" version="1.1" xmlns:xlink="http://www.w3.org/1999/xlink" viewBox="0 0 24 24">
  <!-- Generator: Adobe Illustrator 29.2.1, SVG Export Plug-In . SVG Version: 2.1.0 Build 116)  -->
  <defs>
    
    <clipPath id="clippath">
      <rect fill="none" x="0" width="24" height="24"/>
    </clipPath>
    <clipPath id="clippath-1">
      <rect fill="none" x="0" width="24" height="24"/>
    </clipPath>
    <clipPath id="clippath-4">
      <rect fill="none" x="0" width="24" height="24"/>
    </clipPath>
  </defs>
  <g clip-path="url(#clippath)">
    <g clip-path="url(#clippath-4)">
      <path fill="currentColor" d="M17.051,16.086h0c-.13-.217-.329-.338-.575-.352-.26-.015-.455.083-.669.337l-.005.006c-.012.015-.04.049-.079.098-.137.169-.422.519-.703.871q-.933,1.168-.947,1.43v.04c0,.434.339.774.774.774h.43c-.567,1.623-1.696,2.478-3.28,2.478-.982-.002-1.904-.386-2.597-1.082-.693-.696-1.074-1.62-1.072-2.602.005-2.002,1.636-3.648,3.634-3.669.29,0,.776-.097.776-.743,0,0-.003-2.357-.006-4.713-.001-1.178-.004-2.356-.005-3.24,0-.442-.001-.811-.002-1.069,0-.023,0-.045,0-.066.742-.298,1.254-1.032,1.254-1.848,0-.565-.242-1.105-.664-1.483-.421-.377-.987-.557-1.552-.494-.898.1-1.632.822-1.747,1.717-.117.913.398,1.769,1.224,2.103.004,1.242.01,5.804.013,8.405-1.11.16-2.113.667-2.913,1.473-.962.97-1.493,2.257-1.496,3.623-.006,2.832,2.291,5.151,5.123,5.172.01,0,.02,0,.029,0,1.414,0,2.69-.556,3.591-1.567,1.041-1.166,1.569-2.862,1.569-5.041.001-.382-.076-.511-.105-.559M11.935,2.234c.152-.015.302.038.41.145.108.108.161.257.146.41-.023.233-.217.427-.45.45-.153.015-.302-.038-.41-.146-.108-.108-.161-.257-.145-.41h0c.023-.233.217-.426.45-.45"/>
    </g>
  </g>
</svg>