<?xml version="1.0" encoding="UTF-8"?>
<svg id="Layer_1" xmlns="http://www.w3.org/2000/svg" version="1.1" xmlns:xlink="http://www.w3.org/1999/xlink" viewBox="0 0 24 24">
  <!-- Generator: Adobe Illustrator 29.2.1, SVG Export Plug-In . SVG Version: 2.1.0 Build 116)  -->
  <defs>
    
    <clipPath id="clippath">
      <rect fill="none" x="0" width="24" height="24"/>
    </clipPath>
    <clipPath id="clippath-1">
      <rect fill="none" x="0" width="24" height="24"/>
    </clipPath>
    <clipPath id="clippath-3">
      <rect fill="none" x="0" width="24" height="24"/>
    </clipPath>
  </defs>
  <g clip-path="url(#clippath)">
    <g clip-path="url(#clippath-3)">
      <path fill="currentColor" d="M22.464,8.186h-.71c-.085,0-.16-.058-.18-.14-.482-1.963-2.017-3.394-4.206-3.394-.067,0-.134.001-.2.004-.08.003-.152-.049-.174-.126v-.002c-.158-.548-.259-1.102-.726-.97-.81.228-1.292.885-1.497,1.233-.05.084-.156.116-.243.072-.544-.275-4.082-1.781-8.801-.312C2.548,5.7.735,8.436.735,11.474c0,2.432,2.068,8.81,2.068,8.81.045.162.193.274.361.274h1.599c.201,0,.366-.159.375-.358,0-.011.002-.023.004-.034.033-.142.269-1.167.374-1.622.026-.112.145-.174.251-.13,1.214.496,2.578.775,4.019.775,1.168,0,2.284-.183,3.312-.516.108-.035.222.035.241.147l.224,1.363c0,.207.168.375.375.375h1.618c.159,0,.301-.101.354-.251,0,0,2.197-5.413,2.512-6.184.022-.054.069-.094.126-.109,1.341-.358,2.327-1.327,2.824-2.603.028-.071.097-.117.173-.117h.919c.414,0,.75-.336.75-.75v-1.609c0-.414-.336-.75-.75-.75M10.126,10.569c.047,0,.086.015.117.046.031.031.046.07.046.117v.248c0,.047-.015.086-.046.117-.031.031-.07.046-.117.046h-1.41v.432h1.41c.047,0,.086.015.117.046.031.031.046.07.046.117v.248c0,.047-.015.086-.046.117-.031.031-.07.046-.117.046h-1.397c.036.366.143.64.323.822.22.222.526.333.918.333.331,0,.606-.064.826-.191.22-.128.37-.343.45-.645.019-.061.043-.104.071-.128.028-.024.064-.035.106-.035h.39c.043,0,.079.014.11.043.031.028.044.064.039.106-.01.175-.056.348-.138.521-.083.173-.206.328-.369.468-.163.139-.368.252-.617.337-.248.085-.537.128-.868.128-.439,0-.804-.083-1.095-.248-.291-.165-.507-.397-.648-.694-.115-.241-.186-.512-.214-.815h-.459c-.047,0-.086-.015-.117-.046-.031-.031-.046-.07-.046-.117v-.248c0-.047.015-.086.046-.117.031-.031.07-.046.117-.046h.446v-.432h-.446c-.047,0-.086-.015-.117-.046-.031-.031-.046-.07-.046-.117v-.248c0-.047.015-.086.046-.117.031-.031.07-.046.117-.046h.458c.028-.309.101-.584.218-.826.144-.295.36-.526.648-.691.288-.165.652-.248,1.091-.248.331,0,.62.043.868.128.248.085.454.197.617.337.163.139.286.295.369.468.083.173.129.346.138.521.005.043-.008.078-.039.106-.031.028-.067.043-.11.043h-.39c-.043,0-.078-.012-.106-.035-.028-.024-.052-.066-.071-.128-.08-.302-.23-.517-.45-.645-.22-.128-.495-.191-.826-.191-.392,0-.698.111-.918.333-.181.183-.289.46-.324.829h1.398ZM12.86,6.231c-.07.156-.224.249-.385.249-.058,0-.116-.012-.173-.037-2.635-1.184-5.328-.012-5.355,0-.213.095-.462,0-.557-.213-.095-.212,0-.462.212-.557.123-.055,3.057-1.342,6.046,0,.213.095.307.345.212.558"/>
    </g>
  </g>
</svg>