<svg viewBox="0 0 24 24" xmlns="http://www.w3.org/2000/svg">
  <g clip-path="url(#clip0_4712_20613)">
    <path fill-rule="evenodd" clip-rule="evenodd"
      d="M9.22695 2.39614C10.8497 1.92677 12.5648 1.87611 14.2124 2.2489C15.86 2.62168 17.3863 3.40576 18.6489 4.52796C19.9115 5.65017 20.8692 7.07393 21.4327 8.66639C21.617 9.18704 21.3442 9.75846 20.8236 9.9427C20.3029 10.1269 19.7315 9.85423 19.5473 9.33358C19.0965 8.05961 18.3303 6.9206 17.3202 6.02284C16.3101 5.12508 15.0891 4.49782 13.771 4.19959C12.453 3.90136 11.0808 3.94188 9.78267 4.31738C8.4845 4.69287 7.30261 5.3911 6.34728 6.34691C6.3399 6.35431 6.33239 6.36158 6.32478 6.36874L3.52455 8.99998H7C7.55228 8.99998 8 9.4477 8 9.99998C8 10.5523 7.55228 11 7 11H1C0.447715 11 0 10.5523 0 9.99998V3.99998C0 3.4477 0.447715 2.99998 1 2.99998C1.55228 2.99998 2 3.4477 2 3.99998V7.68812L4.9441 4.92168C6.13626 3.73275 7.60939 2.86402 9.22695 2.39614ZM16 14C16 13.4477 16.4478 13 17 13H23C23.5523 13 24 13.4477 24 14V20C24 20.5523 23.5523 21 23 21C22.4478 21 22 20.5523 22 20V16.3119L19.0559 19.0783C17.8637 20.2672 16.3906 21.136 14.7731 21.6038C13.1503 22.0732 11.4352 22.1239 9.7876 21.7511C8.14002 21.3783 6.61373 20.5942 5.35114 19.472C4.08854 18.3498 3.1308 16.926 2.56728 15.3336C2.38304 14.8129 2.65576 14.2415 3.1764 14.0573C3.69705 13.873 4.26848 14.1457 4.45272 14.6664C4.90353 15.9404 5.66972 17.0794 6.6798 17.9771C7.68987 18.8749 8.91091 19.5022 10.229 19.8004C11.547 20.0986 12.9192 20.0581 14.2173 19.6826C15.5155 19.3071 16.6974 18.6089 17.6527 17.6531C17.6601 17.6457 17.6676 17.6384 17.6752 17.6312L20.4755 15H17C16.4478 15 16 14.5523 16 14Z"
      fill="currentColor" />
  </g>
  <defs>
    <clipPath id="clip0_4712_20613">
      <rect width="24" height="24" fill="white" />
    </clipPath>
  </defs>
</svg>