<svg viewBox="0 0 24 24" fill="none" xmlns="http://www.w3.org/2000/svg">
  <g clip-path="url(#clip0_4712_20631)">
    <path fill-rule="evenodd" clip-rule="evenodd"
      d="M12 1.99997C11.7348 1.99997 11.4804 2.10533 11.2929 2.29286C11.1054 2.4804 11 2.73475 11 2.99997V3.17396C10.9979 3.69077 10.8448 4.19569 10.5594 4.62658C10.2741 5.05747 9.86895 5.39552 9.39393 5.59911C9.30938 5.63535 9.22042 5.65966 9.12961 5.67153C8.69798 5.82269 8.23333 5.85995 7.781 5.77793C7.26 5.68346 6.77925 5.43509 6.40073 5.06483L6.39285 5.05712L6.33289 4.99708C6.24002 4.9041 6.12934 4.82995 6.00794 4.77962C5.88654 4.7293 5.75642 4.7034 5.625 4.7034C5.49358 4.7034 5.36346 4.7293 5.24206 4.77962C5.12066 4.82995 5.01037 4.90371 4.9175 4.99668L4.91671 4.99747C4.82374 5.09034 4.74998 5.20063 4.69965 5.32203C4.64933 5.44343 4.62343 5.57355 4.62343 5.70497C4.62343 5.83638 4.64933 5.96651 4.69965 6.08791C4.74998 6.20931 4.82374 6.3196 4.91671 6.41247L4.98491 6.48066C5.35516 6.85918 5.60349 7.33997 5.69796 7.86097C5.79055 8.3716 5.73113 8.89793 5.52745 9.37475C5.34189 9.8613 5.01698 10.2826 4.59305 10.5858C4.16054 10.8952 3.64498 11.0673 3.11338 11.0797L3.09 11.08H3C2.73478 11.08 2.48043 11.1853 2.29289 11.3729C2.10536 11.5604 2 11.8148 2 12.08C2 12.3452 2.10536 12.5995 2.29289 12.7871C2.48043 12.9746 2.73478 13.08 3 13.08H3.17399C3.6908 13.082 4.19572 13.2352 4.62661 13.5205C5.05601 13.8049 5.3932 14.2082 5.59701 14.6811C5.80908 15.1642 5.87211 15.6997 5.77796 16.219C5.68349 16.74 5.43512 17.2207 5.06486 17.5992L5.05715 17.6071L4.9971 17.6671C4.90413 17.7599 4.82998 17.8706 4.77965 17.992C4.72933 18.1134 4.70343 18.2436 4.70343 18.375C4.70343 18.5064 4.72933 18.6365 4.77965 18.7579C4.82998 18.8793 4.90374 18.9896 4.99671 19.0825L4.9975 19.0833C5.09037 19.1762 5.20066 19.25 5.32206 19.3003C5.44346 19.3506 5.57359 19.3765 5.705 19.3765C5.83641 19.3765 5.96654 19.3506 6.08794 19.3003C6.20934 19.25 6.31963 19.1762 6.4125 19.0833L6.48069 19.0151C6.85921 18.6448 7.34 18.3965 7.861 18.302C8.37163 18.2094 8.89796 18.2688 9.37477 18.4725C9.86132 18.6581 10.2827 18.983 10.5859 19.4069C10.8952 19.8394 11.0673 20.355 11.0797 20.8866L11.08 20.91V21C11.08 21.2652 11.1854 21.5195 11.3729 21.7071C11.5604 21.8946 11.8148 22 12.08 22C12.3452 22 12.5996 21.8946 12.7871 21.7071C12.9746 21.5195 13.08 21.2652 13.08 21V20.83L13.08 20.826C13.0821 20.3092 13.2352 19.8042 13.5206 19.3734C13.805 18.9439 14.2083 18.6067 14.6812 18.4029C15.1643 18.1909 15.6998 18.1279 16.219 18.222C16.74 18.3165 17.2207 18.5648 17.5993 18.9351L17.6071 18.9428L17.6671 19.0029C17.76 19.0958 17.8707 19.17 17.9921 19.2203C18.1135 19.2706 18.2436 19.2965 18.375 19.2965C18.5064 19.2965 18.6365 19.2706 18.7579 19.2203C18.8793 19.17 18.9896 19.0962 19.0825 19.0033L19.0833 19.0025C19.1763 18.9096 19.25 18.7993 19.3003 18.6779C19.3507 18.5565 19.3766 18.4264 19.3766 18.295C19.3766 18.1636 19.3507 18.0334 19.3003 17.912C19.25 17.7906 19.1763 17.6803 19.0833 17.5875L19.0151 17.5193C18.6448 17.1408 18.3965 16.66 18.302 16.139C18.2079 15.6198 18.2709 15.0843 18.4829 14.6012C18.6867 14.1283 19.024 13.7249 19.4534 13.4405C19.8843 13.1552 20.3892 13.002 20.906 13L20.91 13L21 13C21.2652 13 21.5196 12.8946 21.7071 12.7071C21.8946 12.5195 22 12.2652 22 12C22 11.7348 21.8946 11.4804 21.7071 11.2929C21.5196 11.1053 21.2652 11 21 11H20.83L20.826 11C20.3092 10.9979 19.8043 10.8448 19.3734 10.5594C18.9425 10.2741 18.6045 9.86893 18.4009 9.3939C18.3646 9.30935 18.3403 9.22039 18.3284 9.12958C18.1773 8.69794 18.14 8.23329 18.222 7.78097C18.3165 7.25997 18.5649 6.77922 18.9351 6.4007L18.9428 6.39282L19.0029 6.33287C19.0959 6.23999 19.17 6.12931 19.2203 6.00791C19.2707 5.88651 19.2966 5.75638 19.2966 5.62497C19.2966 5.49356 19.2707 5.36343 19.2203 5.24203C19.17 5.12063 19.0963 5.01034 19.0033 4.91747L19.0025 4.91668C18.9096 4.82371 18.7993 4.74995 18.6779 4.69962C18.5565 4.6493 18.4264 4.6234 18.295 4.6234C18.1636 4.6234 18.0335 4.6493 17.9121 4.69962C17.7907 4.74995 17.6804 4.82371 17.5875 4.91668L17.5193 4.98488C17.1408 5.35513 16.66 5.60346 16.139 5.69793C15.6198 5.79208 15.0843 5.72905 14.6011 5.51698C14.1282 5.31317 13.7249 4.97598 13.4406 4.54658C13.1552 4.11569 13.0021 3.61077 13 3.09396L13 3.08997V2.99997C13 2.73475 12.8946 2.4804 12.7071 2.29286C12.5196 2.10533 12.2652 1.99997 12 1.99997ZM9.87868 0.878649C10.4413 0.31604 11.2044 -3.05176e-05 12 -3.05176e-05C12.7956 -3.05176e-05 13.5587 0.31604 14.1213 0.878649C14.6839 1.44126 15 2.20432 15 2.99997V3.08747C15.0008 3.21371 15.0383 3.33701 15.1081 3.44229C15.178 3.54798 15.2774 3.63089 15.3939 3.68083L15.4038 3.68505C15.5226 3.73749 15.6544 3.75319 15.7822 3.73002C15.9086 3.7071 16.0253 3.64725 16.1177 3.55808L16.1725 3.50326C16.4511 3.22433 16.782 3.00305 17.1462 2.85208C17.5104 2.7011 17.9008 2.6234 18.295 2.6234C18.6892 2.6234 19.0796 2.7011 19.4438 2.85208C19.808 3.00305 20.1389 3.22433 20.4175 3.50326C20.6961 3.78171 20.9171 4.1123 21.0679 4.47615C21.2189 4.84034 21.2966 5.23072 21.2966 5.62497C21.2966 6.01922 21.2189 6.4096 21.0679 6.77379C20.917 7.13781 20.6959 7.46854 20.4171 7.74707C20.417 7.74721 20.4172 7.74694 20.4171 7.74707L20.3619 7.80228C20.2727 7.89465 20.2129 8.01139 20.19 8.13779C20.1668 8.26558 20.1824 8.39739 20.2349 8.5162C20.2631 8.58024 20.2845 8.64689 20.2988 8.71504C20.3461 8.78476 20.4068 8.84495 20.4777 8.89192C20.583 8.96164 20.7063 8.99918 20.8325 8.99997H21C21.7957 8.99997 22.5587 9.31604 23.1213 9.87865C23.6839 10.4413 24 11.2043 24 12C24 12.7956 23.6839 13.5587 23.1213 14.1213C22.5587 14.6839 21.7957 15 21 15H20.9125C20.7863 15.0008 20.663 15.0383 20.5577 15.108C20.452 15.178 20.3691 15.2774 20.3191 15.3939L20.3149 15.4038C20.2625 15.5226 20.2468 15.6544 20.27 15.7821C20.2929 15.9085 20.3527 16.0253 20.4419 16.1176L20.4967 16.1725C20.4966 16.1723 20.4968 16.1726 20.4967 16.1725C20.7755 16.451 20.997 16.7821 21.1479 17.1461C21.2989 17.5103 21.3766 17.9007 21.3766 18.295C21.3766 18.6892 21.2989 19.0796 21.1479 19.4438C20.9969 19.808 20.7756 20.1388 20.4967 20.4175L19.79 19.71L20.4975 20.4167C20.2189 20.6956 19.888 20.9169 19.5238 21.0679C19.1596 21.2188 18.7692 21.2965 18.375 21.2965C17.9808 21.2965 17.5904 21.2188 17.2262 21.0679C16.8622 20.917 16.5314 20.6958 16.2529 20.4171C16.2528 20.4169 16.253 20.4172 16.2529 20.4171L16.1977 20.3618C16.1053 20.2727 15.9886 20.2128 15.8622 20.1899C15.7344 20.1667 15.6026 20.1824 15.4838 20.2348L15.474 20.2392C15.3574 20.2891 15.258 20.372 15.1881 20.4777C15.1183 20.5829 15.0808 20.7062 15.08 20.8325V21C15.08 21.7956 14.7639 22.5587 14.2013 23.1213C13.6387 23.6839 12.8757 24 12.08 24C11.2843 24 10.5213 23.6839 9.95868 23.1213C9.39607 22.5587 9.08 21.7956 9.08 21V20.9243C9.07526 20.7971 9.03327 20.6741 8.95914 20.5704C8.88326 20.4643 8.77723 20.3835 8.65482 20.3385C8.63505 20.3312 8.61551 20.3233 8.59624 20.3148C8.47742 20.2624 8.34561 20.2467 8.21782 20.2699C8.09142 20.2928 7.97467 20.3527 7.8823 20.4419L7.8275 20.4967C7.82737 20.4968 7.82763 20.4966 7.8275 20.4967C7.54896 20.7754 7.21784 20.997 6.85382 21.1479C6.48963 21.2988 6.09925 21.3765 5.705 21.3765C5.31075 21.3765 4.92037 21.2988 4.55618 21.1479C4.19233 20.997 3.86174 20.776 3.58329 20.4975C3.30436 20.2188 3.08308 19.888 2.93211 19.5238C2.78113 19.1596 2.70343 18.7692 2.70343 18.375C2.70343 17.9807 2.78113 17.5903 2.93211 17.2261C3.08308 16.862 3.30436 16.5311 3.58329 16.2525L3.63811 16.1976C3.72728 16.1053 3.78713 15.9885 3.81005 15.8621C3.83322 15.7344 3.81758 15.6026 3.76514 15.4837L3.76081 15.4739C3.71087 15.3574 3.62801 15.258 3.52232 15.188C3.41704 15.1183 3.29374 15.0808 3.1675 15.08H3C2.20435 15.08 1.44129 14.7639 0.87868 14.2013C0.316071 13.6387 0 12.8756 0 12.08C0 11.2843 0.316071 10.5213 0.87868 9.95865C1.44129 9.39604 2.20435 9.07997 3 9.07997H3.07564C3.20283 9.07523 3.32591 9.03324 3.42955 8.95911C3.53564 8.88323 3.61644 8.7772 3.66146 8.65479C3.66874 8.63502 3.67663 8.61548 3.68514 8.5962C3.73758 8.47739 3.75322 8.34558 3.73005 8.21779C3.70713 8.09139 3.64728 7.97465 3.5581 7.88228L3.50329 7.82747C3.22436 7.54885 3.00308 7.21798 2.85211 6.85379C2.70113 6.4896 2.62343 6.09922 2.62343 5.70497C2.62343 5.31072 2.70113 4.92034 2.85211 4.55615C3.00301 4.19213 3.22415 3.8614 3.50289 3.58286C3.78143 3.30412 4.11216 3.08298 4.47618 2.93208C4.84037 2.7811 5.23075 2.7034 5.625 2.7034C6.01925 2.7034 6.40963 2.7811 6.77382 2.93208C7.13802 3.08305 7.46888 3.30433 7.7475 3.58326L7.80231 3.63807C7.89468 3.72725 8.01142 3.7871 8.13782 3.81002C8.26561 3.83319 8.39742 3.81755 8.51624 3.76511C8.58027 3.73684 8.64693 3.71546 8.71507 3.70119C8.78479 3.65387 8.84498 3.5932 8.89195 3.52229C8.96167 3.41701 8.99921 3.29371 9 3.16747V2.99997C9 2.20432 9.31607 1.44126 9.87868 0.878649ZM12 9.99999C10.8954 9.99999 10 10.8954 10 12C10 13.1046 10.8954 14 12 14C13.1046 14 14 13.1046 14 12C14 10.8954 13.1046 9.99999 12 9.99999ZM8.00002 12C8.00002 9.79085 9.79088 7.99999 12 7.99999C14.2092 7.99999 16 9.79085 16 12C16 14.2091 14.2092 16 12 16C9.79088 16 8.00002 14.2091 8.00002 12Z"
      fill="currentColor" />
  </g>
</svg>