<?xml version="1.0" encoding="UTF-8"?>
<svg id="Layer_1" xmlns="http://www.w3.org/2000/svg" version="1.1" xmlns:xlink="http://www.w3.org/1999/xlink" viewBox="0 0 24 24">
  <!-- Generator: Adobe Illustrator 29.2.1, SVG Export Plug-In . SVG Version: 2.1.0 Build 116)  -->
  <defs>
    
    <clipPath id="clippath">
      <rect fill="none" x="0" width="24" height="24"/>
    </clipPath>
    <clipPath id="clippath-1">
      <rect fill="none" x="0" width="24" height="24"/>
    </clipPath>
  </defs>
  <g clip-path="url(#clippath)">
    <g clip-path="url(#clippath-1)">
      <path fill="currentColor" d="M21.099,4.839h-.009c-.096,0-2.351-.053-2.474-3.071v-.017c-.006-.125-.093-.231-.214-.26-.735-.175-3.348-.742-6.379-.742-3.081,0-5.743.628-6.428.804-.104.027-.184.111-.204.217-.029.152-.053.319-.077.497-.154,1.119-.329,2.387-2.33,2.528h-.007c-.145.011-.258.131-.259.276l-.002.324c-.047,5.967-.111,14.139,9.135,17.811.072.029.153.027.224-.006h0c8.532-3.887,9.205-9.42,9.301-18.072v-.009c.001-.154-.123-.279-.276-.28M20.21,5.858c-.083,7.571-.673,12.413-8.139,15.814h0c-.033.015-.068.023-.104.023-.031,0-.063-.006-.092-.018C3.783,18.464,3.84,11.313,3.881,6.092l.002-.284c0-.127.1-.232.227-.241h.006c1.751-.123,1.904-1.233,2.039-2.212.021-.155.042-.302.068-.435.018-.093.087-.166.179-.19.6-.154,2.929-.703,5.625-.703,2.652,0,4.939.496,5.582.649.106.025.183.118.187.227v.015c.108,2.641,2.081,2.687,2.165,2.688h.008c.134.001.243.111.242.245v.008Z"/>
      <path fill="currentColor" d="M17.074,3.324c-.901-.194-2.846-.547-5.048-.547-2.253,0-4.232.394-5.118.601-.004.025-.007.052-.011.079-.129.937-.339,2.462-2.268,2.802-.02,2.573-.023,5.468.907,8.132.323.926.744,1.767,1.264,2.527.202-1.922,1.016-3.365,3.041-3.411.064-.001.125.022.171.066l1.801,1.726c.091.088.235.088.328.002l1.847-1.73c.046-.043.106-.066.169-.064,2.012.045,2.829,1.468,3.038,3.369.404-.567.744-1.177,1.023-1.839,1.034-2.447,1.192-5.522,1.236-8.742-.931-.206-2.165-.988-2.38-2.971M12.012,12.591c-1.526,0-2.764-1.454-2.764-3.248s1.237-3.248,2.764-3.248,2.764,1.454,2.764,3.248-1.237,3.248-2.764,3.248"/>
    </g>
  </g>
</svg>