<?xml version="1.0" encoding="UTF-8"?>
<svg id="Layer_1" xmlns="http://www.w3.org/2000/svg" version="1.1" xmlns:xlink="http://www.w3.org/1999/xlink" viewBox="0 0 24 24">
  <!-- Generator: Adobe Illustrator 29.2.1, SVG Export Plug-In . SVG Version: 2.1.0 Build 116)  -->
  <defs>
    
    <clipPath id="clippath">
      <rect fill="none" x="0" width="24" height="24"/>
    </clipPath>
    <clipPath id="clippath-1">
      <rect fill="none" x="0" width="24" height="24"/>
    </clipPath>
  </defs>
  <g clip-path="url(#clippath)">
    <g clip-path="url(#clippath-1)">
      <path fill="currentColor" d="M21.09,4.839c-.096,0-2.351-.053-2.474-3.071v-.017c-.006-.125-.093-.231-.215-.26-.735-.175-3.348-.742-6.379-.742-3.081,0-5.743.627-6.428.803-.104.027-.184.111-.204.217-.029.152-.053.319-.077.497-.154,1.119-.329,2.387-2.33,2.528h-.007c-.145.011-.258.131-.259.276l-.002.324c-.047,5.967-.111,14.139,9.135,17.811.072.029.153.027.224-.006h0c8.532-3.887,9.205-9.42,9.301-18.072v-.009c.001-.154-.123-.279-.276-.28h-.009Z"/>
    </g>
  </g>
</svg>