<?xml version="1.0" encoding="UTF-8"?>
<svg id="Layer_1" xmlns="http://www.w3.org/2000/svg" version="1.1" xmlns:xlink="http://www.w3.org/1999/xlink" viewBox="0 0 24 24">
  <!-- Generator: Adobe Illustrator 29.2.1, SVG Export Plug-In . SVG Version: 2.1.0 Build 116)  -->
  <defs>
    
    <clipPath id="clippath">
      <rect fill="none" x="0" width="24" height="24"/>
    </clipPath>
    <clipPath id="clippath-1">
      <rect fill="none" x="0" width="24" height="24"/>
    </clipPath>
  </defs>
  <g clip-path="url(#clippath)">
    <g clip-path="url(#clippath-1)">
      <path fill="currentColor" d="M12.008,8.284c-.006,0-.012,0-.019,0-.435,0-.859.175-1.167.483-.294.294-.464.681-.481,1.094-.002.039.03.072.069.072h3.156c.039,0,.071-.033.069-.072-.018-.413-.187-.8-.481-1.094-.306-.306-.713-.478-1.146-.483"/>
      <path fill="currentColor" d="M11.948,11.124c-.28.02-.506.248-.523.529-.012.197.078.374.222.484.037.028.059.071.059.117v.665c0,.159.132.287.292.281.153-.006.271-.136.271-.288v-.659c0-.045.021-.088.057-.115.137-.103.226-.267.226-.452,0-.325-.275-.586-.605-.563"/>
      <path fill="currentColor" d="M17.074,3.324c-.901-.194-2.846-.547-5.048-.547-2.253,0-4.232.394-5.118.601-.004.025-.007.052-.011.079-.129.937-.339,2.462-2.268,2.802-.02,2.573-.023,5.468.907,8.132,1.06,3.035,3.16,5.166,6.418,6.51,1.664-.776,2.977-1.632,4.01-2.613.989-.939,1.726-2.003,2.254-3.25,1.034-2.447,1.192-5.522,1.236-8.742-.931-.206-2.164-.988-2.38-2.972M14.902,13.926c0,.208-.169.377-.377.377h-5.074c-.208,0-.377-.169-.377-.377v-3.616c0-.208.169-.377.377-.377h.073c.037,0,.068-.03.069-.067.036-1.29,1.096-2.329,2.395-2.329s2.359,1.039,2.395,2.329c0,.037.032.067.069.067h.073c.208,0,.377.169.377.377v3.616Z"/>
      <path fill="currentColor" d="M21.099,4.839h-.009c-.096,0-2.351-.053-2.474-3.071v-.017c-.006-.125-.093-.231-.214-.26-.735-.175-3.348-.742-6.379-.742-3.081,0-5.743.628-6.428.804-.104.027-.184.111-.204.217-.029.152-.053.319-.077.497-.154,1.119-.329,2.387-2.33,2.528h-.007c-.145.011-.258.131-.259.276l-.002.324c-.047,5.967-.111,14.139,9.135,17.811.072.029.153.027.224-.006h0c8.532-3.887,9.205-9.42,9.301-18.072v-.009c.001-.154-.123-.279-.276-.28M20.21,5.858c-.083,7.571-.673,12.413-8.139,15.814h0c-.033.015-.068.023-.104.023-.031,0-.063-.006-.092-.018C3.783,18.464,3.84,11.313,3.881,6.092l.002-.284c0-.127.1-.232.227-.241h.006c1.751-.123,1.904-1.233,2.039-2.212.021-.155.042-.302.068-.435.018-.093.087-.166.179-.19.6-.154,2.929-.703,5.625-.703,2.652,0,4.939.496,5.582.649.106.025.183.118.187.227v.015c.108,2.641,2.081,2.687,2.165,2.688h.008c.134.001.243.111.242.245v.008Z"/>
    </g>
  </g>
</svg>