<svg viewBox="0 0 24 24" fill="currentColor" xmlns="http://www.w3.org/2000/svg">
  <path fill-rule="evenodd" clip-rule="evenodd"
    d="M5.2 1.4C5.38885 1.14819 5.68524 1 6 1H18C18.3148 1 18.6111 1.14819 18.8 1.4L21.8 5.4C21.9298 5.5731 22 5.78363 22 6V20C22 20.7957 21.6839 21.5587 21.1213 22.1213C20.5587 22.6839 19.7957 23 19 23H5C4.20435 23 3.44129 22.6839 2.87868 22.1213C2.31607 21.5587 2 20.7957 2 20V6C2 5.78363 2.07018 5.5731 2.2 5.4L5.2 1.4ZM6.5 3L5 5H19L17.5 3H6.5ZM20 7H4V20C4 20.2652 4.10536 20.5196 4.29289 20.7071C4.48043 20.8946 4.73478 21 5 21H19C19.2652 21 19.5196 20.8946 19.7071 20.7071C19.8946 20.5196 20 20.2652 20 20V7ZM8.00002 8.99997C8.5523 8.99997 9.00002 9.44768 9.00002 9.99997C9.00002 10.7956 9.31609 11.5587 9.8787 12.1213C10.4413 12.6839 11.2044 13 12 13C12.7957 13 13.5587 12.6839 14.1213 12.1213C14.6839 11.5587 15 10.7956 15 9.99997C15 9.44768 15.4477 8.99997 16 8.99997C16.5523 8.99997 17 9.44768 17 9.99997C17 11.326 16.4732 12.5978 15.5355 13.5355C14.5979 14.4732 13.3261 15 12 15C10.6739 15 9.40216 14.4732 8.46448 13.5355C7.5268 12.5978 7.00002 11.326 7.00002 9.99997C7.00002 9.44768 7.44773 8.99997 8.00002 8.99997Z"
    fill="#currentColor" />
</svg>