<?xml version="1.0" encoding="UTF-8"?>
<svg id="Layer_1" xmlns="http://www.w3.org/2000/svg" version="1.1" xmlns:xlink="http://www.w3.org/1999/xlink" viewBox="0 0 24 24">
  <!-- Generator: Adobe Illustrator 29.2.1, SVG Export Plug-In . SVG Version: 2.1.0 Build 116)  -->
  <defs>
    
    <clipPath id="clippath">
      <rect fill="none" x="0" width="24" height="24"/>
    </clipPath>
    <clipPath id="clippath-1">
      <rect fill="none" x="0" width="24" height="24"/>
    </clipPath>
    <clipPath id="clippath-5">
      <rect fill="none" x="0" width="24" height="24"/>
    </clipPath>
  </defs>
  <g clip-path="url(#clippath)">
    <g clip-path="url(#clippath-5)">
      <path fill="currentColor" d="M22.736,11.603c0,5.968-4.836,10.804-10.804,10.804-.961,0-1.894-.126-2.779-.36-.127-.034-.262-.031-.389.004l-4.275,1.201c-.602.168-1.128-.444-.869-1.013l1.042-2.294c.067-.147.032-.319-.086-.429-2.121-1.971-3.449-4.785-3.449-7.913C1.127,5.638,5.963.798,11.931.798s10.804,4.84,10.804,10.804"/>
    </g>
  </g>
</svg>