<?xml version="1.0" encoding="UTF-8"?>
<svg id="Layer_1" xmlns="http://www.w3.org/2000/svg" version="1.1" xmlns:xlink="http://www.w3.org/1999/xlink" viewBox="0 0 24 24">
  <!-- Generator: Adobe Illustrator 29.2.1, SVG Export Plug-In . SVG Version: 2.1.0 Build 116)  -->
  <defs>
    
    <clipPath id="clippath">
      <rect fill="none" x="0" width="24" height="24"/>
    </clipPath>
    <clipPath id="clippath-1">
      <rect fill="none" x="0" width="24" height="24"/>
    </clipPath>
    <clipPath id="clippath-5">
      <rect fill="none" x="0" width="24" height="24"/>
    </clipPath>
  </defs>
  <g clip-path="url(#clippath)">
    <g clip-path="url(#clippath-5)">
      <path fill="currentColor" d="M21.75,9.019H2.25c-.828,0-1.5.672-1.5,1.5v2.62c0,.828.672,1.5,1.5,1.5h19.5c.828,0,1.5-.672,1.5-1.5v-2.62c0-.828-.672-1.5-1.5-1.5M17.797,12.72c-.388,0-.703-.322-.703-.72s.315-.72.703-.72.703.322.703.72-.315.72-.703.72M20.575,12.72c-.388,0-.703-.322-.703-.72s.315-.72.703-.72.703.322.703.72-.315.72-.703.72"/>
      <path fill="currentColor" d="M21.75,2.658H2.25c-.828,0-1.5.672-1.5,1.5v2.62c0,.828.672,1.5,1.5,1.5h19.5c.828,0,1.5-.672,1.5-1.5v-2.62c0-.828-.672-1.5-1.5-1.5M17.797,6.184c-.388,0-.703-.322-.703-.72s.315-.72.703-.72.703.322.703.72-.315.72-.703.72M20.575,6.184c-.388,0-.703-.322-.703-.72s.315-.72.703-.72.703.322.703.72-.315.72-.703.72"/>
      <path fill="currentColor" d="M21.75,15.38H2.25c-.828,0-1.5.672-1.5,1.5v2.62c0,.828.672,1.5,1.5,1.5h19.5c.828,0,1.5-.672,1.5-1.5v-2.62c0-.828-.672-1.5-1.5-1.5M17.797,18.91c-.388,0-.703-.322-.703-.72s.315-.72.703-.72.703.322.703.72-.315.72-.703.72M20.575,18.91c-.388,0-.703-.322-.703-.72s.315-.72.703-.72.703.322.703.72-.315.72-.703.72"/>
    </g>
  </g>
</svg>