<?xml version="1.0" encoding="UTF-8"?>
<svg id="Layer_1" xmlns="http://www.w3.org/2000/svg" version="1.1" xmlns:xlink="http://www.w3.org/1999/xlink" viewBox="0 0 24 24">
  <!-- Generator: Adobe Illustrator 29.2.1, SVG Export Plug-In . SVG Version: 2.1.0 Build 116)  -->
  <defs>
    
    <clipPath id="clippath">
      <rect fill="none" x="0" width="24" height="24"/>
    </clipPath>
    <clipPath id="clippath-1">
      <rect fill="none" x="0" width="24" height="24"/>
    </clipPath>
    <clipPath id="clippath-6">
      <rect fill="none" x="0" width="24" height="24"/>
    </clipPath>
  </defs>
  <g clip-path="url(#clippath)">
    <g clip-path="url(#clippath-6)">
      <path fill="currentColor" d="M23.076,3.624l-2.357-.169c-.093-.007-.167-.081-.174-.174l-.169-2.357c-.012-.16-.206-.233-.32-.119l-1.66,1.66c-.067.067-.107.158-.11.253l-.073,2.271-7.736,7.737c-.22.22-.22.576,0,.796.11.11.254.165.398.165s.288-.055.398-.165l7.711-7.713,2.227-.033c.098-.001.191-.041.26-.11l1.723-1.724c.114-.114.041-.308-.119-.32"/>
      <path fill="currentColor" d="M14.043,11.964c.155.423.229.885.199,1.367-.103,1.691-1.47,3.058-3.161,3.16-2.024.122-3.698-1.553-3.576-3.577.102-1.692,1.471-3.058,3.162-3.16.483-.029.945.045,1.368.201.068.025.145.008.196-.044l1.411-1.412c.088-.088.068-.236-.04-.296-.836-.465-1.802-.723-2.83-.705-3.033.054-5.495,2.538-5.523,5.572-.028,3.111,2.47,5.646,5.567,5.676,3.12.031,5.682-2.505,5.682-5.624,0-.989-.255-1.918-.704-2.726-.06-.109-.208-.128-.296-.04l-1.412,1.412c-.051.051-.069.128-.044.196"/>
      <path fill="currentColor" d="M17.384,8.69c.859,1.256,1.334,2.732,1.363,4.282.04,2.115-.777,4.169-2.261,5.676-1.493,1.516-3.489,2.351-5.614,2.351-2.088,0-4.09-.83-5.566-2.306-1.503-1.503-2.324-3.507-2.306-5.635.017-2.06.847-4.041,2.304-5.498,1.488-1.489,3.466-2.309,5.57-2.309,1.607,0,3.14.478,4.437,1.367.074.051.174.04.237-.023l1.343-1.343c.081-.081.071-.216-.022-.284-1.657-1.22-3.698-1.947-5.909-1.966C5.48,2.954.929,7.316.755,12.794c-.186,5.852,4.597,10.635,10.449,10.449,5.478-.174,9.84-4.725,9.794-10.206-.019-2.211-.746-4.252-1.966-5.908-.068-.093-.203-.104-.284-.022l-1.343,1.344c-.064.064-.072.165-.021.24"/>
    </g>
  </g>
</svg>