<?xml version="1.0" encoding="UTF-8"?>
<svg id="Layer_1" xmlns="http://www.w3.org/2000/svg" version="1.1" xmlns:xlink="http://www.w3.org/1999/xlink" viewBox="0 0 24 24">
  <!-- Generator: Adobe Illustrator 29.2.1, SVG Export Plug-In . SVG Version: 2.1.0 Build 116)  -->
  <defs>
    
    <clipPath id="clippath">
      <rect fill="none" x="0" width="24" height="24"/>
    </clipPath>
    <clipPath id="clippath-1">
      <rect fill="none" x="0" width="24" height="24"/>
    </clipPath>
  </defs>
  <g clip-path="url(#clippath)">
    <g clip-path="url(#clippath-1)">
      <path fill="currentColor" d="M22.697,18.556l-2.67-2.67c-.737-.737-1.933-.737-2.67,0l-.102.102c-1.049,1.049-2.751,1.049-3.8,0l-5.544-5.544c-1.049-1.049-1.049-2.751,0-3.8l.102-.102c.737-.737.737-1.933,0-2.67l-2.67-2.67c-.737-.737-1.933-.737-2.67,0l-1.335,1.335c-2.027,2.027.811,8.154,6.341,13.683,5.529,5.529,11.655,8.368,13.683,6.341l1.335-1.335c.737-.737.737-1.933,0-2.67"/>
    </g>
  </g>
</svg>