<?xml version="1.0" encoding="UTF-8"?>
<svg id="Layer_1" xmlns="http://www.w3.org/2000/svg" version="1.1" xmlns:xlink="http://www.w3.org/1999/xlink" viewBox="0 0 24 24">
  <!-- Generator: Adobe Illustrator 29.2.1, SVG Export Plug-In . SVG Version: 2.1.0 Build 116)  -->
  <defs>
    
    <clipPath id="clippath">
      <rect fill="none" x="0" width="24" height="24"/>
    </clipPath>
    <clipPath id="clippath-1">
      <rect fill="none" x="0" width="24" height="24"/>
    </clipPath>
    <clipPath id="clippath-5">
      <rect fill="none" x="0" width="24" height="24"/>
    </clipPath>
  </defs>
  <g clip-path="url(#clippath)">
    <g clip-path="url(#clippath-5)">
      <path fill="currentColor" d="M11.977,8.04c-1.329,0-2.607-.096-3.798-.271-.207,1.187-.325,2.461-.347,3.778h8.29c-.022-1.317-.14-2.591-.347-3.778-1.191.176-2.469.271-3.798.271"/>
      <path fill="currentColor" d="M13.314,1.854c-.449-.441-.899-.664-1.338-.664s-.889.224-1.338.664c-.51.502-.997,1.271-1.408,2.226-.36.836-.656,1.786-.882,2.815,1.15.167,2.372.254,3.628.254s2.477-.087,3.628-.254c-.226-1.029-.521-1.979-.882-2.815-.411-.955-.898-1.725-1.408-2.226"/>
      <path fill="currentColor" d="M15.485,17.627c-1.115-.156-2.295-.237-3.508-.237s-2.393.081-3.508.237c.207.834.462,1.608.762,2.304.411.955.898,1.725,1.408,2.226.449.441.899.665,1.338.665s.889-.224,1.338-.665c.51-.502.997-1.271,1.408-2.226.3-.697.555-1.47.762-2.304"/>
      <path fill="currentColor" d="M7.589,17.768c-1.31.237-2.509.583-3.538,1.026-.266.115-.518.235-.753.361,1.75,2.122,4.264,3.591,7.12,3.987-1.207-.911-2.214-2.85-2.829-5.374"/>
      <path fill="currentColor" d="M4.05,5.746c.998.43,2.157.768,3.421,1.004.6-2.77,1.66-4.91,2.947-5.88-3.019.419-5.654,2.035-7.411,4.355.315.184.664.359,1.043.522"/>
      <path fill="currentColor" d="M16.122,12.437H7.831c.024,1.519.176,2.982.443,4.32,1.164-.167,2.409-.257,3.703-.257s2.539.09,3.703.257c.267-1.338.419-2.801.443-4.32"/>
      <path fill="currentColor" d="M19.903,18.794c-1.029-.443-2.228-.788-3.538-1.026-.615,2.523-1.622,4.463-2.829,5.374,2.857-.396,5.37-1.865,7.12-3.987-.236-.125-.487-.246-.753-.361"/>
      <path fill="currentColor" d="M16.651,7.622c.212,1.22.339,2.542.362,3.925h6.198c-.083-2.053-.714-3.964-1.754-5.589-1.221.724-2.878,1.303-4.806,1.665"/>
      <path fill="currentColor" d="M17.013,12.437c-.025,1.589-.186,3.097-.458,4.463,1.836.336,3.432.869,4.645,1.536,1.196-1.712,1.927-3.773,2.011-5.999h-6.198Z"/>
      <path fill="currentColor" d="M20.945,5.224c-1.757-2.319-4.392-3.936-7.411-4.355,1.287.971,2.346,3.11,2.947,5.88,1.264-.236,2.423-.574,3.421-1.004.379-.163.728-.338,1.043-.522"/>
      <path fill="currentColor" d="M7.397,16.9c-.271-1.366-.433-2.874-.458-4.463H.741c.084,2.226.815,4.287,2.011,5.999,1.213-.667,2.809-1.2,4.645-1.536"/>
      <path fill="currentColor" d="M6.94,11.547c.023-1.383.15-2.705.362-3.925-1.928-.362-3.585-.94-4.806-1.665-1.039,1.626-1.671,3.537-1.754,5.589h6.198Z"/>
    </g>
  </g>
</svg>