<svg viewBox="0 0 24 24" fill="currentColor" xmlns="http://www.w3.org/2000/svg">
  <g clip-path="url(#clip0_4318_15271)">
    <g clip-path="url(#clip1_4318_15271)">
      <path fill-rule="evenodd" clip-rule="evenodd"
        d="M13.087 8.28667H8.41974V23.1107H13.0856V15.328C13.0856 13.24 14.0979 12 16.0461 12C17.8263 12 18.6861 13.1933 18.6861 15.328V23.1107H23.5284V13.7293C23.5284 9.756 21.1397 7.84533 17.8122 7.84533C14.4903 7.84533 13.0856 10.2907 13.0856 10.2907V8.28533L13.087 8.28667ZM0.455974 23.1107H5.31103V8.28533H0.454562V23.112L0.455974 23.1107ZM5.73738 3.62133C5.73924 3.97853 5.66659 4.33258 5.52357 4.66325C5.38055 4.99393 5.16997 5.29476 4.90385 5.54858C4.63772 5.80239 4.32127 6.00422 3.97256 6.14253C3.62385 6.28084 3.24971 6.35292 2.8715 6.35467C2.49287 6.35344 2.11821 6.28175 1.76893 6.1437C1.41965 6.00564 1.10261 5.80392 0.835925 5.55007C0.569241 5.29622 0.358147 4.99522 0.214709 4.66427C0.0712706 4.33333 -0.00169821 3.97893 -2.63693e-05 3.62133C-0.0018843 3.26369 0.0709573 2.90921 0.214329 2.57819C0.357701 2.24716 0.568788 1.94609 0.835509 1.69221C1.10223 1.43832 1.41935 1.23661 1.76871 1.09861C2.11807 0.960618 2.49282 0.889048 2.8715 0.888C4.45127 0.888 5.73738 2.104 5.73738 3.62133Z"
        fill="currentColor" />
    </g>
  </g>
  <defs>
    <clipPath id="clip0_4318_15271">
      <rect width="24" height="24" fill="white" />
    </clipPath>
    <clipPath id="clip1_4318_15271">
      <rect width="24" height="24" fill="white" />
    </clipPath>
  </defs>
</svg>