<svg viewBox="0 0 24 24" fill="currentColor" xmlns="http://www.w3.org/2000/svg">
  <g clip-path="url(#clip0_4318_15277)">
    <path fill-rule="evenodd" clip-rule="evenodd"
      d="M21.6674 10.8945C19.5355 15.3004 14.3896 21.296 11.1357 21.296C7.93105 21.296 7.46695 14.684 5.71533 10.2834C4.85628 8.11842 4.29895 8.61558 2.68352 9.70914L1.69876 8.47942C4.05486 6.47703 6.41095 4.14953 7.85981 4.0218C9.492 3.8698 10.4925 4.94753 10.8696 7.25708C11.3651 10.2897 12.0587 14.9996 13.2697 14.9996C14.2115 14.9996 16.5341 11.264 16.6546 9.92869C16.8662 7.9738 15.169 7.91364 13.6919 8.52375C16.026 1.13064 25.7332 2.4923 21.6674 10.8945Z"
      fill="currentColor" />
  </g>
  <defs>
    <clipPath id="clip0_4318_15277">
      <rect width="22" height="19" fill="white" transform="translate(1 3)" />
    </clipPath>
  </defs>
</svg>