<svg viewBox="0 0 24 24" fill="currentColor" xmlns="http://www.w3.org/2000/svg">
  <g clip-path="url(#clip0_4318_15303)">
    <path
      d="M2.9138 4.74011C2.69966 4.74011 2.51943 4.81331 2.42852 4.95647C2.33477 5.10419 2.34896 5.29463 2.449 5.48735L4.8548 9.53867C4.85887 9.54635 4.85887 9.55127 4.8548 9.55835L1.0742 16.0484C0.975642 16.2395 0.980453 16.4314 1.0742 16.5794C1.16499 16.7219 1.32499 16.8154 1.53938 16.8154H5.09744C5.62935 16.8154 5.88605 16.4662 6.06787 16.147C6.06787 16.147 9.7652 9.78575 9.90915 9.53879C9.8946 9.51599 7.46302 5.38919 7.46302 5.38919C7.28551 5.08235 7.0182 4.73999 6.47248 4.73999H2.9138V4.74011Z"
      fill="currentColor" />
    <path
      d="M17.862 0.000237732C17.3305 0.000237732 17.1002 0.325918 16.9093 0.659518C16.9093 0.659518 9.24403 13.8835 8.99139 14.3177C9.00435 14.3412 14.047 23.3406 14.047 23.3406C14.2236 23.6476 14.4961 23.9999 15.0412 23.9999H18.5951C18.8095 23.9999 18.977 23.9214 19.0673 23.7787C19.1623 23.6311 19.1596 23.4359 19.06 23.2438L14.0439 14.3284C14.0415 14.325 14.0403 14.3211 14.0403 14.317C14.0403 14.313 14.0415 14.309 14.0439 14.3057L21.9217 0.755278C22.0208 0.563998 22.0229 0.368878 21.9293 0.221038C21.8385 0.0784782 21.6705 -0.00012207 21.4561 -0.00012207H17.8616V0.000117798H17.862V0.000237732Z"
      fill="currentColor" />
  </g>
  <defs>
    <clipPath id="clip0_4318_15303">
      <rect width="24" height="24" fill="white" />
    </clipPath>
  </defs>
</svg>