<svg width="24" height="24" viewBox="0 0 24 24" fill="currentColor"
  xmlns="http://www.w3.org/2000/svg">
  <g clip-path="url(#clip0_1361_4043)">
    <path fill-rule="evenodd" clip-rule="evenodd"
      d="M9.17156 1.17157C9.9217 0.421427 10.9391 0 12 0C13.0609 0 14.0783 0.421427 14.8284 1.17157C15.5786 1.92172 16 2.93913 16 4V12C16 13.0609 15.5786 14.0783 14.8284 14.8284C14.0783 15.5786 13.0608 16 12 16C10.9391 16 9.9217 15.5786 9.17156 14.8284C8.42141 14.0783 7.99998 13.0609 7.99998 12V4C7.99998 2.93913 8.42141 1.92172 9.17156 1.17157ZM12 2C11.4696 2 10.9608 2.21071 10.5858 2.58579C10.2107 2.96086 9.99998 3.46957 9.99998 4V12C9.99998 12.5304 10.2107 13.0391 10.5858 13.4142C10.9608 13.7893 11.4696 14 12 14C12.5304 14 13.0391 13.7893 13.4142 13.4142C13.7893 13.0391 14 12.5304 14 12V4C14 3.46957 13.7893 2.96086 13.4142 2.58579C13.0391 2.21071 12.5304 2 12 2ZM5 9C5.55228 9 6 9.44771 6 10V12C6 13.5913 6.63214 15.1174 7.75736 16.2426C8.88258 17.3679 10.4087 18 12 18C13.5913 18 15.1174 17.3679 16.2426 16.2426C17.3679 15.1174 18 13.5913 18 12V10C18 9.44771 18.4477 9 19 9C19.5523 9 20 9.44771 20 10V12C20 14.1217 19.1571 16.1566 17.6569 17.6569C16.3942 18.9195 14.753 19.7165 13 19.9373L13 22H16C16.5523 22 17 22.4478 17 23C17 23.5523 16.5523 24 16 24H8C7.44772 24 7 23.5523 7 23C7 22.4478 7.44772 22 8 22H11L11 19.9373C9.247 19.7165 7.60577 18.9195 6.34315 17.6569C4.84285 16.1566 4 14.1217 4 12V10C4 9.44771 4.44772 9 5 9Z"
      fill="currentColor" />
  </g>
  <defs>
    <clipPath id="clip0_1361_4043">
      <rect width="24" height="24" fill="currentColor" />
    </clipPath>
  </defs>
</svg>