<svg viewBox="0 0 24 24" fill="currentColor" xmlns="http://www.w3.org/2000/svg">
  <g clip-path="url(#clip0_1361_3772)">
    <path fill-rule="evenodd" clip-rule="evenodd"
      d="M8.50002 4C6.84316 4 5.50002 5.34315 5.50002 7C5.50002 8.65685 6.84316 10 8.50002 10C10.1569 10 11.5 8.65685 11.5 7C11.5 5.34315 10.1569 4 8.50002 4ZM3.50002 7C3.50002 4.23858 5.73859 2 8.50002 2C11.2614 2 13.5 4.23858 13.5 7C13.5 9.76142 11.2614 12 8.50002 12C5.73859 12 3.50002 9.76142 3.50002 7ZM16 11C16 10.4477 16.4478 10 17 10H23C23.5523 10 24 10.4477 24 11C24 11.5523 23.5523 12 23 12H17C16.4478 12 16 11.5523 16 11ZM1.46447 15.4645C2.40215 14.5268 3.67392 14 5 14H12C13.3261 14 14.5979 14.5268 15.5355 15.4645C16.4732 16.4021 17 17.6739 17 19V21C17 21.5523 16.5523 22 16 22C15.4477 22 15 21.5523 15 21V19C15 18.2043 14.6839 17.4413 14.1213 16.8787C13.5587 16.3161 12.7956 16 12 16H5C4.20435 16 3.44129 16.3161 2.87868 16.8787C2.31607 17.4413 2 18.2043 2 19V21C2 21.5523 1.55228 22 1 22C0.447715 22 0 21.5523 0 21V19C0 17.6739 0.526784 16.4021 1.46447 15.4645Z"
      fill="#currentColor" />
  </g>
  <defs>
    <clipPath id="clip0_1361_3772">
      <rect width="24" height="24" fill="white" />
    </clipPath>
  </defs>
</svg>