<svg viewBox="0 0 24 24" fill="currentColor" xmlns="http://www.w3.org/2000/svg">
  <path fill-rule="evenodd" clip-rule="evenodd"
    d="M11 4C7.13401 4 4 7.13401 4 11C4 14.866 7.13401 18 11 18C12.886 18 14.5978 17.2541 15.8565 16.0413C15.8828 16.0071 15.9116 15.9742 15.9429 15.9429C15.9742 15.9116 16.0071 15.8828 16.0413 15.8565C17.2541 14.5978 18 12.886 18 11C18 7.13401 14.866 4 11 4ZM18.0319 16.6177C19.2635 15.078 20 13.125 20 11C20 6.02944 15.9706 2 11 2C6.02944 2 2 6.02944 2 11C2 15.9706 6.02944 20 11 20C13.125 20 15.078 19.2635 16.6177 18.0319L20.2929 21.7071C20.6834 22.0977 21.3166 22.0977 21.7071 21.7071C22.0977 21.3166 22.0977 20.6834 21.7071 20.2929L18.0319 16.6177ZM11 7.00002C11.5523 7.00002 12 7.44773 12 8.00002V10H14C14.5523 10 15 10.4477 15 11C15 11.5523 14.5523 12 14 12H12V14C12 14.5523 11.5523 15 11 15C10.4477 15 10 14.5523 10 14V12H8.00002C7.44773 12 7.00002 11.5523 7.00002 11C7.00002 10.4477 7.44773 10 8.00002 10H10V8.00002C10 7.44773 10.4477 7.00002 11 7.00002Z"
    fill="#currentColor" />
</svg>