<svg width="162" height="24" viewBox="0 0 162 24" fill="none" xmlns="http://www.w3.org/2000/svg">
  <g clip-path="url(#clip0_4318_15341)">
    <path
      d="M89.2153 8.3925H87.7299V15.75H89.2153C91.6515 15.75 93.122 14.5125 93.122 12.075C93.122 9.75 91.7035 8.3925 89.2153 8.3925ZM89.3862 14.9925H88.5617V9.165H89.3862C89.772 9.13294 90.1601 9.18633 90.5233 9.32145C90.8866 9.45657 91.2162 9.67016 91.4892 9.94728C91.7623 10.2244 91.9721 10.5584 92.104 10.9259C92.2359 11.2934 92.2868 11.6856 92.2531 12.075C92.2959 12.4671 92.2515 12.8639 92.1231 13.2364C91.9946 13.6089 91.7853 13.9477 91.5105 14.228C91.2357 14.5084 90.9024 14.7232 90.5349 14.8568C90.1673 14.9903 89.7748 15.0393 89.3862 15V14.9925ZM137.091 13.8075V10.9875H138.279V10.29H137.091V9.1425H136.267V10.29H135.635V10.9875H136.267V13.8825C136.267 15.1125 136.734 15.825 137.819 15.825C137.985 15.8353 138.151 15.8353 138.316 15.825V15.075H138.086C137.403 15.0675 137.091 14.8275 137.091 13.8075ZM141.547 10.1475C141.181 10.1486 140.818 10.2259 140.482 10.3745C140.146 10.5231 139.844 10.7399 139.595 11.0115C139.345 11.283 139.154 11.6034 139.032 11.9528C138.911 12.3022 138.862 12.6731 138.888 13.0425C138.867 13.4182 138.924 13.7941 139.056 14.1461C139.188 14.4982 139.391 14.8184 139.653 15.0862C139.914 15.3541 140.229 15.5635 140.576 15.7011C140.922 15.8387 141.294 15.9013 141.666 15.885C142.108 15.9039 142.547 15.8042 142.939 15.5961C143.33 15.3879 143.66 15.0787 143.894 14.7L143.352 14.3025C143.164 14.5737 142.912 14.7933 142.619 14.9413C142.326 15.0893 142.001 15.161 141.674 15.15C141.415 15.1663 141.156 15.1271 140.914 15.0351C140.671 14.943 140.451 14.8002 140.267 14.616C140.083 14.4318 139.94 14.2104 139.847 13.9663C139.754 13.7223 139.713 13.4611 139.728 13.2H144.087V12.945C144.122 12.588 144.081 12.2277 143.969 11.8876C143.856 11.5475 143.673 11.2352 143.433 10.9712C143.192 10.7072 142.9 10.4974 142.573 10.3554C142.247 10.2135 141.895 10.1426 141.54 10.1475H141.547ZM139.809 12.5775C139.825 12.1211 140.014 11.6884 140.338 11.3697C140.662 11.051 141.095 10.8711 141.547 10.8675C141.774 10.8583 142 10.8959 142.212 10.9781C142.423 11.0602 142.616 11.1852 142.778 11.3454C142.94 11.5055 143.068 11.6974 143.154 11.9093C143.24 12.1212 143.282 12.3486 143.278 12.5775H139.809ZM122.044 10.14C122.042 9.98096 122.074 9.82344 122.139 9.67827C122.203 9.5331 122.298 9.4037 122.416 9.29897C122.535 9.19423 122.674 9.11663 122.825 9.0715C122.976 9.02637 123.135 9.01477 123.291 9.0375C123.582 9.03983 123.866 9.12851 124.108 9.29253C124.35 9.45654 124.538 9.68865 124.65 9.96L125.393 9.6675C125.238 9.23573 124.951 8.86526 124.573 8.61023C124.195 8.3552 123.746 8.22897 123.291 8.25C123.03 8.22398 122.766 8.25315 122.516 8.33564C122.267 8.41814 122.037 8.55216 121.841 8.7292C121.646 8.90623 121.489 9.12241 121.38 9.364C121.272 9.60558 121.215 9.86729 121.212 10.1325C121.212 12.51 124.628 12.0375 124.628 13.8825C124.632 14.0548 124.598 14.2258 124.53 14.384C124.463 14.5421 124.362 14.6836 124.235 14.7989C124.108 14.9142 123.958 15.0005 123.795 15.052C123.633 15.1036 123.461 15.1191 123.291 15.0975C122.936 15.1153 122.585 15.0117 122.296 14.8035C122.006 14.5953 121.794 14.2947 121.694 13.95L120.952 14.2725C121.096 14.7735 121.408 15.2083 121.835 15.5025C122.262 15.7966 122.777 15.9319 123.291 15.885C123.575 15.9134 123.861 15.8813 124.131 15.7908C124.401 15.7002 124.649 15.5532 124.859 15.3594C125.069 15.1655 125.237 14.9292 125.351 14.6657C125.464 14.4022 125.522 14.1174 125.519 13.83C125.46 11.475 122.036 11.82 122.036 10.14H122.044ZM132.442 11.64C132.448 11.5304 132.476 11.4232 132.525 11.3251C132.574 11.2271 132.643 11.1402 132.726 11.0699C132.81 10.9996 132.907 10.9473 133.011 10.9164C133.115 10.8855 133.225 10.8765 133.333 10.89C133.57 10.8766 133.805 10.937 134.007 11.0631C134.209 11.1892 134.368 11.3748 134.462 11.595L135.063 11.2425C134.923 10.9155 134.687 10.6397 134.387 10.452C134.087 10.2644 133.737 10.1738 133.385 10.1925C133.171 10.1664 132.955 10.1853 132.749 10.2481C132.544 10.3108 132.353 10.416 132.19 10.5571C132.026 10.6981 131.894 10.8718 131.8 11.0672C131.707 11.2627 131.655 11.4756 131.647 11.6925C131.647 13.5375 134.365 13.11 134.365 14.37C134.361 14.4954 134.331 14.6185 134.277 14.7315C134.223 14.8446 134.147 14.9452 134.053 15.027C133.959 15.1087 133.849 15.1699 133.73 15.2065C133.611 15.2432 133.486 15.2546 133.363 15.24C133.081 15.249 132.802 15.1742 132.562 15.0249C132.321 14.8756 132.13 14.6583 132.011 14.4L131.439 14.7825C131.599 15.1466 131.866 15.4528 132.203 15.6604C132.54 15.8681 132.931 15.9673 133.325 15.945C133.56 15.9704 133.797 15.9454 134.022 15.8716C134.246 15.7978 134.452 15.6768 134.627 15.5167C134.802 15.3566 134.941 15.1609 135.035 14.9426C135.13 14.7243 135.177 14.4882 135.175 14.25C135.175 12.3675 132.464 12.8325 132.464 11.6025L132.442 11.64ZM150.839 10.185C150.485 10.1666 150.133 10.2507 149.825 10.4274C149.517 10.6042 149.266 10.8662 149.101 11.1825C148.955 10.8888 148.732 10.6408 148.457 10.4653C148.182 10.2898 147.864 10.1933 147.539 10.1864C147.213 10.1795 146.892 10.2622 146.61 10.4259C146.328 10.5895 146.095 10.8277 145.937 11.115V10.365H145.127V15.75H145.944V12.4425C145.925 12.2533 145.944 12.062 146 11.8805C146.057 11.699 146.15 11.5311 146.273 11.387C146.396 11.243 146.547 11.126 146.716 11.0431C146.886 10.9602 147.071 10.9132 147.259 10.905C147.439 10.8945 147.62 10.9244 147.788 10.9927C147.955 11.061 148.106 11.166 148.229 11.3001C148.352 11.4341 148.444 11.594 148.498 11.7682C148.553 11.9423 148.568 12.1265 148.544 12.3075V15.75H149.361V12.4725C149.361 11.4525 149.933 10.905 150.698 10.905C151.463 10.905 151.908 11.43 151.908 12.465V15.75H152.733V12.21C152.766 11.9458 152.743 11.6773 152.663 11.4233C152.583 11.1694 152.45 10.936 152.271 10.7396C152.093 10.5432 151.875 10.3884 151.631 10.2862C151.387 10.1839 151.125 10.1366 150.861 10.1475L150.839 10.185ZM104.79 8.3475C104.677 8.34751 104.566 8.38158 104.472 8.44537C104.377 8.50917 104.304 8.59981 104.261 8.70577C104.218 8.81173 104.207 8.92823 104.23 9.04045C104.253 9.15268 104.308 9.25556 104.388 9.33601C104.469 9.41647 104.572 9.47087 104.683 9.4923C104.795 9.51373 104.91 9.50122 105.014 9.45636C105.119 9.4115 105.207 9.33631 105.269 9.24036C105.331 9.14441 105.364 9.03203 105.362 8.9175C105.368 8.843 105.359 8.76802 105.336 8.69694C105.314 8.62587 105.277 8.56014 105.228 8.50357C105.18 8.44701 105.121 8.40076 105.055 8.36752C104.988 8.33429 104.916 8.31473 104.842 8.31L104.79 8.3475ZM128.505 14.715L126.782 10.3275H125.891L128.119 15.735L127.376 17.67H128.201L131.097 10.3275H130.228L128.505 14.715ZM110.776 11.205C110.569 10.8844 110.285 10.6225 109.949 10.444C109.614 10.2655 109.239 10.1764 108.86 10.185C108.498 10.1867 108.139 10.2644 107.808 10.4131C107.476 10.5618 107.179 10.7784 106.935 11.049C106.69 11.3197 106.504 11.6386 106.388 11.9856C106.272 12.3326 106.229 12.7002 106.261 13.065C106.23 13.4291 106.274 13.7958 106.391 14.1416C106.508 14.4875 106.696 14.8049 106.941 15.0737C107.186 15.3425 107.484 15.5568 107.816 15.7029C108.147 15.8491 108.506 15.9238 108.868 15.9225C109.239 15.9314 109.607 15.8444 109.935 15.6699C110.264 15.4953 110.543 15.2389 110.747 14.925V15.4125C110.747 16.6275 109.87 17.0625 108.838 17.0625C108.264 17.0534 107.701 16.8959 107.204 16.605L106.951 17.25C107.54 17.5978 108.208 17.7864 108.89 17.7975C110.45 17.7975 111.601 17.0925 111.601 15.0225V10.29H110.814L110.776 11.205ZM108.942 15.165C108.681 15.1601 108.423 15.1005 108.186 14.9902C107.948 14.8798 107.736 14.721 107.562 14.5237C107.388 14.3265 107.257 14.095 107.176 13.844C107.095 13.5929 107.067 13.3277 107.093 13.065C107.093 12.5677 107.288 12.0908 107.636 11.7392C107.985 11.3875 108.457 11.19 108.949 11.19C109.442 11.19 109.914 11.3875 110.262 11.7392C110.611 12.0908 110.806 12.5677 110.806 13.065C110.826 13.3217 110.795 13.5798 110.714 13.824C110.633 14.0681 110.504 14.2932 110.335 14.4858C110.166 14.6784 109.96 14.8345 109.729 14.9448C109.499 15.0551 109.249 15.1172 108.994 15.1275L108.942 15.165ZM115.359 10.185C115.033 10.1813 114.711 10.2655 114.428 10.429C114.145 10.5924 113.91 10.8293 113.747 11.115V10.365H112.938V15.75H113.755V12.4275C113.741 12.234 113.768 12.0398 113.833 11.8572C113.897 11.6746 113.999 11.5076 114.131 11.3666C114.263 11.2256 114.422 11.1138 114.599 11.0382C114.776 10.9627 114.966 10.925 115.158 10.9275C115.337 10.9234 115.515 10.9577 115.68 11.0282C115.844 11.0987 115.992 11.2037 116.114 11.3363C116.235 11.4689 116.328 11.6261 116.384 11.7974C116.441 11.9687 116.461 12.1503 116.443 12.33V15.75H117.35V12.3375C117.35 11.0925 116.666 10.1475 115.411 10.1475L115.359 10.185ZM96.442 10.185C96.0784 10.1912 95.7199 10.2722 95.3884 10.4231C95.0568 10.5739 94.7593 10.7915 94.5139 11.0625C94.2685 11.3335 94.0804 11.6522 93.9611 11.9991C93.8418 12.3459 93.7939 12.7138 93.8202 13.08C93.7991 13.4557 93.8562 13.8316 93.9878 14.1836C94.1194 14.5357 94.3227 14.8559 94.5844 15.1237C94.8461 15.3916 95.1605 15.601 95.5074 15.7386C95.8542 15.8762 96.2257 15.9388 96.598 15.9225C97.0397 15.9399 97.4782 15.8395 97.8693 15.6315C98.2604 15.4235 98.5904 15.1152 98.8261 14.7375L98.2839 14.34C98.0945 14.6113 97.8412 14.8308 97.5469 14.9788C97.2526 15.1267 96.9265 15.1984 96.598 15.1875C96.3395 15.2038 96.0806 15.1646 95.8382 15.0726C95.5958 14.9805 95.3754 14.8377 95.1916 14.6535C95.0078 14.4693 94.8647 14.2479 94.7717 14.0038C94.6787 13.7598 94.6379 13.4986 94.652 13.2375H98.9895V12.9825C99.0638 11.31 98.0908 10.1475 96.494 10.1475L96.442 10.185ZM94.7115 12.615C94.723 12.1587 94.9102 11.7249 95.2333 11.4056C95.5564 11.0864 95.99 10.9068 96.442 10.905C96.6686 10.8958 96.8946 10.9334 97.1062 11.0156C97.3179 11.0977 97.5106 11.2227 97.6727 11.3829C97.8348 11.543 97.9627 11.7349 98.0487 11.9468C98.1346 12.1587 98.1768 12.3861 98.1725 12.615H94.7115ZM104.367 15.7875H105.184V10.29H104.367V15.7875ZM100.653 11.64C100.659 11.5304 100.688 11.4232 100.737 11.3251C100.786 11.2271 100.854 11.1402 100.938 11.0699C101.021 10.9996 101.118 10.9473 101.223 10.9164C101.327 10.8855 101.437 10.8765 101.544 10.89C101.782 10.8766 102.017 10.937 102.219 11.0631C102.421 11.1892 102.579 11.3748 102.673 11.595L103.275 11.2425C103.135 10.9155 102.899 10.6397 102.599 10.452C102.299 10.2644 101.949 10.1738 101.596 10.1925C101.383 10.1664 101.167 10.1853 100.961 10.2481C100.755 10.3108 100.565 10.416 100.401 10.5571C100.238 10.6981 100.105 10.8718 100.012 11.0672C99.9184 11.2627 99.8662 11.4756 99.8585 11.6925C99.8585 13.5375 102.577 13.11 102.577 14.37C102.572 14.4947 102.543 14.6171 102.489 14.7296C102.436 14.8421 102.36 14.9423 102.267 15.0239C102.174 15.1056 102.064 15.1669 101.947 15.2041C101.829 15.2413 101.704 15.2535 101.582 15.24C101.299 15.2366 101.024 15.1494 100.79 14.9894C100.557 14.8294 100.375 14.6036 100.267 14.34L99.6951 14.7225C99.8557 15.0866 100.122 15.3928 100.459 15.6004C100.796 15.8081 101.188 15.9073 101.582 15.885C101.811 15.9088 102.042 15.8846 102.261 15.8139C102.481 15.7431 102.683 15.6274 102.856 15.4738C103.029 15.3203 103.169 15.1324 103.267 14.9218C103.364 14.7112 103.418 14.4825 103.424 14.25C103.424 12.3675 100.698 12.8325 100.698 11.6025L100.653 11.64ZM19.3404 12.39C19.3706 11.6431 19.2475 10.898 18.9789 10.2014C18.7104 9.50482 18.302 8.87184 17.7796 8.34221C17.2573 7.81258 16.6321 7.39774 15.9433 7.12374C15.2546 6.84974 14.5172 6.7225 13.7774 6.75C13.0385 6.71657 12.3008 6.83765 11.6104 7.10563C10.92 7.37361 10.2919 7.78271 9.76544 8.3073C9.23897 8.83189 8.8255 9.46065 8.55094 10.1542C8.27638 10.8477 8.14666 11.591 8.1699 12.3375C8.14246 13.0865 8.26908 13.8331 8.54177 14.5302C8.81445 15.2272 9.22729 15.8597 9.7542 16.3875C10.2811 16.9154 10.9107 17.3272 11.6032 17.597C12.2956 17.8668 13.036 17.9887 13.7774 17.955C14.8978 17.971 15.9998 17.6668 16.9563 17.0775L17.9961 18L19.5409 16.1925L18.568 15.36C19.1043 14.4449 19.3865 13.4008 19.385 12.3375L19.3404 12.39ZM16.4809 13.5L15.5525 12.675L14.0671 14.4675L14.9509 15.255C14.5898 15.4119 14.2003 15.4911 13.8071 15.4875C13.4082 15.4865 13.0137 15.4026 12.6484 15.2409C12.283 15.0792 11.9545 14.8432 11.6834 14.5477C11.4123 14.2521 11.2045 13.9033 11.0728 13.5231C10.9411 13.1428 10.8884 12.7392 10.918 12.3375C10.8895 11.9368 10.9431 11.5344 11.0754 11.1555C11.2077 10.7766 11.4158 10.4293 11.6869 10.1353C11.958 9.84119 12.2861 9.60666 12.6509 9.4463C13.0157 9.28593 13.4093 9.20317 13.8071 9.20317C14.205 9.20317 14.5986 9.28593 14.9634 9.4463C15.3281 9.60666 15.6563 9.84119 15.9274 10.1353C16.1984 10.4293 16.4066 10.7766 16.5389 11.1555C16.6712 11.5344 16.7248 11.9368 16.6963 12.3375C16.685 12.734 16.6123 13.1262 16.4809 13.5ZM27.5771 13.5975C27.6053 13.8504 27.5778 14.1065 27.4964 14.3473C27.4151 14.5882 27.282 14.8079 27.1066 14.9907C26.9313 15.1735 26.7181 15.3149 26.4822 15.4047C26.2464 15.4944 25.9938 15.5304 25.7426 15.51C25.4913 15.5307 25.2386 15.4957 25.0021 15.4074C24.7656 15.3191 24.5511 15.1798 24.3735 14.999C24.196 14.8183 24.0596 14.6006 23.9741 14.3611C23.8886 14.1216 23.8559 13.8661 23.8784 13.6125V6.9525H21.264V13.605C21.264 16.1775 22.8534 17.94 25.7203 17.94C28.5872 17.94 30.1767 16.1175 30.1767 13.59V6.9525H27.5771V13.5975ZM68.7906 8.625V6.9525H60.6207V9.2775H65.233L60.5018 16.0725V17.7525H68.8351V15.42H64.0075L68.7906 8.625ZM35.138 6.9525L31.4244 17.7525H34.0462L34.7889 15.33H38.1534L38.8962 17.7525H41.5922L37.8786 6.9525H35.138ZM35.5019 13.17L36.512 9.75L37.5147 13.1775L35.5019 13.17ZM50.3563 10.2675C50.3563 8.1225 49.1383 6.9525 46.6427 6.9525H43.1668V17.7525H45.7812V13.755H46.5759L48.4847 17.7525H51.3738L48.9154 13.125C49.3933 12.8267 49.7827 12.4039 50.0428 11.9011C50.3029 11.3982 50.424 10.8339 50.3934 10.2675H50.3563ZM46.561 11.55H45.8183V9.2175H46.4793C47.4226 9.2175 47.7568 9.6525 47.7568 10.3575C47.7735 10.5195 47.7539 10.6833 47.6994 10.8367C47.645 10.99 47.5571 11.1291 47.4424 11.2436C47.3276 11.358 47.1888 11.445 47.0362 11.4981C46.8837 11.5511 46.7213 11.5688 46.561 11.55ZM51.9977 9.3H54.3076V17.7525H56.9145V9.315H59.2244V6.9525H51.9903L51.9977 9.3ZM0 24H77.9854V0H0V24ZM1.18835 1.2H76.7971V22.8H1.18835V1.2Z"
      fill="currentColor" />
  </g>
  <defs>
    <clipPath id="clip0_4318_15341">
      <rect width="153" height="24" fill="white" />
    </clipPath>
  </defs>
</svg>