<svg viewBox="0 0 24 24" fill="currentColor" xmlns="http://www.w3.org/2000/svg">
  <g clip-path="url(#clip0_4318_15327)">
    <g clip-path="url(#clip1_4318_15327)">
      <path fill-rule="evenodd" clip-rule="evenodd"
        d="M24 0V24H0V0H24ZM22.8412 1.2H1.15875V22.8H22.8412V1.2ZM12 6.555C15.315 6.555 17.505 8.94 17.505 11.985C17.505 13.08 17.22 14.085 16.725 14.925L17.655 15.735L16.14 17.49L15.12 16.59C14.265 17.13 13.2 17.445 12 17.445C8.685 17.445 6.495 15.075 6.495 11.985C6.495 8.94 8.685 6.555 12 6.555ZM12 8.955C10.32 8.955 9.165 10.26 9.165 11.985C9.165 13.755 10.335 15.045 12 15.045C12.405 15.045 12.795 14.97 13.125 14.82L12.255 14.055L13.74 12.315L14.655 13.11C14.76 12.765 14.835 12.39 14.835 11.985C14.835 10.26 13.68 8.955 12 8.955Z"
        fill="currentColor" />
    </g>
  </g>
  <defs>
    <clipPath id="clip0_4318_15327">
      <rect width="24" height="24" fill="white" />
    </clipPath>
    <clipPath id="clip1_4318_15327">
      <rect width="24" height="24" fill="white" />
    </clipPath>
  </defs>
</svg>