<svg viewBox="0 0 24 24" fill="currentColor" xmlns="http://www.w3.org/2000/svg">
  <path fill-rule="evenodd" clip-rule="evenodd"
    d="M4.99998 2C4.99998 1.44772 5.4477 1 5.99998 1H18C18.5523 1 19 1.44772 19 2V7.99998H20C20.7957 7.99998 21.5587 8.31606 22.1213 8.87866C22.6839 9.44127 23 10.2043 23 11V16C23 16.7956 22.6839 17.5587 22.1213 18.1213C21.5587 18.6839 20.7957 19 20 19H19V22C19 22.5523 18.5523 23 18 23H5.99998C5.4477 23 4.99998 22.5523 4.99998 22V19H4C3.20435 19 2.44129 18.6839 1.87868 18.1213C1.31607 17.5587 1 16.7956 1 16V11C1 10.2043 1.31607 9.44127 1.87868 8.87866C2.44129 8.31605 3.20435 7.99998 4 7.99998H4.99998V2ZM5.99423 9.99998C5.99615 9.99999 5.99806 10 5.99998 10C6.0019 10 6.00382 9.99999 6.00574 9.99998H17.9942C17.9961 9.99999 17.9981 10 18 10C18.0019 10 18.0038 9.99999 18.0057 9.99998H20C20.2652 9.99998 20.5196 10.1053 20.7071 10.2929C20.8946 10.4804 21 10.7348 21 11V16C21 16.2652 20.8946 16.5196 20.7071 16.7071C20.5196 16.8946 20.2652 17 20 17H19V14C19 13.4477 18.5523 13 18 13H5.99998C5.4477 13 4.99998 13.4477 4.99998 14V17H4C3.73478 17 3.48043 16.8946 3.29289 16.7071C3.10536 16.5196 3 16.2652 3 16V11C3 10.7348 3.10536 10.4804 3.29289 10.2929C3.48043 10.1053 3.73478 9.99998 4 9.99998H5.99423ZM6.99998 18.0057C6.99999 18.0038 7 18.0019 7 18C7 17.9981 6.99999 17.9961 6.99998 17.9942V15H17V21H6.99998V18.0057ZM17 7.99998H6.99998V3H17V7.99998Z"
    fill="#currentColor" />
</svg>