<svg viewBox="0 0 24 24" fill="currentColor" xmlns="http://www.w3.org/2000/svg">
  <path fill-rule="evenodd" clip-rule="evenodd"
    d="M2 6C2 5.44772 2.44772 5 3 5H3.01C3.56228 5 4.01 5.44772 4.01 6C4.01 6.55228 3.56228 7 3.01 7H3C2.44772 7 2 6.55228 2 6ZM7.00002 6C7.00002 5.44772 7.44773 5 8.00002 5H21C21.5523 5 22 5.44772 22 6C22 6.55228 21.5523 7 21 7H8.00002C7.44773 7 7.00002 6.55228 7.00002 6ZM2 12C2 11.4477 2.44772 11 3 11H3.01C3.56228 11 4.01 11.4477 4.01 12C4.01 12.5523 3.56228 13 3.01 13H3C2.44772 13 2 12.5523 2 12ZM7.00002 12C7.00002 11.4477 7.44773 11 8.00002 11H21C21.5523 11 22 11.4477 22 12C22 12.5523 21.5523 13 21 13H8.00002C7.44773 13 7.00002 12.5523 7.00002 12ZM2 18C2 17.4477 2.44772 17 3 17H3.01C3.56228 17 4.01 17.4477 4.01 18C4.01 18.5523 3.56228 19 3.01 19H3C2.44772 19 2 18.5523 2 18ZM7.00002 18C7.00002 17.4477 7.44773 17 8.00002 17H21C21.5523 17 22 17.4477 22 18C22 18.5523 21.5523 19 21 19H8.00002C7.44773 19 7.00002 18.5523 7.00002 18Z"
    fill="currentColor" />
</svg>