<svg xmlns="http://www.w3.org/2000/svg" width="205.61" height="32">
  <path
    d="M120.12 11.19h-2V21h2c3.28 0 5.26-1.65 5.26-4.9 0-3.1-1.91-4.91-5.26-4.91zm.23 8.8h-1.11v-7.77h1.11a3.58 3.58 0 013.86 3.88 3.53 3.53 0 01-3.86 3.9zm64.23-1.58v-3.76h1.6v-.93h-1.6v-1.53h-1.11v1.53h-.85v.93h.85v3.86c0 1.64.63 2.59 2.09 2.59a5.45 5.45 0 00.67 0v-1h-.31c-.92-.01-1.34-.33-1.34-1.69zm6-4.88a3.6 3.6 0 00-3.58 3.86 3.59 3.59 0 003.74 3.79 3.37 3.37 0 003-1.58l-.73-.53a2.65 2.65 0 01-2.26 1.13 2.47 2.47 0 01-2.62-2.6H194v-.34a3.4 3.4 0 00-3.43-3.73zm-2.34 3.24a2.36 2.36 0 012.34-2.28 2.24 2.24 0 012.33 2.28zm-23.92-3.25a1.47 1.47 0 011.68-1.47 2 2 0 011.83 1.23l1-.39A2.87 2.87 0 00166 11a2.55 2.55 0 00-2.8 2.51c0 3.17 4.6 2.54 4.6 5a1.6 1.6 0 01-1.8 1.62 2.13 2.13 0 01-2.15-1.53l-1 .43a3 3 0 003.15 2.15 2.73 2.73 0 003-2.74c-.08-3.14-4.69-2.68-4.69-4.92zm14 2a1.07 1.07 0 011.2-1 1.56 1.56 0 011.52.94l.81-.47a2.33 2.33 0 00-2.26-1.4 2.09 2.09 0 00-2.34 2c0 2.46 3.66 1.89 3.66 3.57a1.21 1.21 0 01-1.35 1.16 1.94 1.94 0 01-1.82-1.12l-.77.51a2.62 2.62 0 002.54 1.55A2.25 2.25 0 00182 19c0-2.51-3.65-1.89-3.65-3.53zm24.77-1.94a2.5 2.5 0 00-2.34 1.33 2.41 2.41 0 00-4.26-.09v-1h-1.09V21h1.1v-4.41a1.86 1.86 0 011.77-2.05 1.65 1.65 0 011.73 1.87V21h1.1v-4.37c0-1.36.77-2.09 1.8-2.09s1.63.7 1.63 2.08V21h1.11v-4.72a2.44 2.44 0 00-2.52-2.75zm-62-2.45a.77.77 0 10.77.76.75.75 0 00-.7-.81zm31.93 8.49l-2.32-5.85h-1.2l3 7.21-1 2.58h1.11l3.9-9.79h-1.17zm-23.87-4.68a3 3 0 00-2.58-1.36 3.53 3.53 0 00-3.5 3.84 3.51 3.51 0 003.51 3.81 2.94 2.94 0 002.53-1.33v.65c0 1.62-1.18 2.2-2.57 2.2a4.53 4.53 0 01-2.2-.61L144 23a5.34 5.34 0 002.61.73c2.1 0 3.65-.94 3.65-3.7v-6.31h-1.06zm-2.47 5.28a2.55 2.55 0 01-2.49-2.8 2.5 2.5 0 115 0 2.55 2.55 0 01-2.44 2.75zm8.64-6.64a2.47 2.47 0 00-2.17 1.24v-1h-1.09V21h1.1v-4.43a1.87 1.87 0 011.89-2 1.7 1.7 0 011.73 1.87V21H158v-4.55c0-1.66-.92-2.92-2.61-2.92zm-25.47 0a3.6 3.6 0 00-3.53 3.86 3.59 3.59 0 003.74 3.79 3.39 3.39 0 003-1.58l-.73-.53a2.67 2.67 0 01-2.27 1.13 2.47 2.47 0 01-2.62-2.6h5.84v-.34c.1-2.23-1.21-3.78-3.36-3.78zm-2.33 3.24a2.34 2.34 0 012.33-2.28 2.24 2.24 0 012.33 2.28zm13 4.23h1.1v-7.33h-1.1zm-5-5.53a1.07 1.07 0 011.2-1 1.56 1.56 0 011.52.94l.81-.47a2.33 2.33 0 00-2.26-1.4 2.09 2.09 0 00-2.34 2c0 2.46 3.66 1.89 3.66 3.57a1.21 1.21 0 01-1.34 1.16 1.94 1.94 0 01-1.77-1.2l-.77.51a2.62 2.62 0 002.54 1.55 2.25 2.25 0 002.48-2.18c0-2.51-3.67-1.89-3.67-3.53zm-109.48 1A7.23 7.23 0 0018.55 9 7.23 7.23 0 0011 16.45a7.23 7.23 0 007.55 7.49 8 8 0 004.28-1.17l1.4 1.23 2.08-2.41L25 20.48a7.89 7.89 0 001.1-4.03zM22.19 18l-1.25-1.1-2 2.39 1.19 1.05a3.81 3.81 0 01-1.54.31 3.91 3.91 0 01-3.89-4.2 3.9 3.9 0 117.78 0 5.07 5.07 0 01-.29 1.55zm14.94.13a2.3 2.3 0 01-2.47 2.55 2.33 2.33 0 01-2.51-2.53V9.27h-3.52v8.87c0 3.43 2.14 5.78 6 5.78s6-2.43 6-5.8V9.27h-3.5zm55.49-6.63V9.27h-11v3.1h6.21l-6.37 9.06v2.24h11.22v-3.11h-6.5zM47.31 9.27l-5 14.4h3.53l1-3.23h4.53l1 3.23H56l-5-14.4zm.49 8.29L49.16 13l1.35 4.57zm20-3.87c0-2.86-1.64-4.42-5-4.42h-4.68v14.4h3.52v-5.33h1.07l2.57 5.33h3.89l-3.31-6.17a4.21 4.21 0 001.99-3.81zm-5.11 1.71h-1v-3.11h.89c1.27 0 1.72.58 1.72 1.52a1.45 1.45 0 01-1.61 1.59zm7.32-3h3.11v11.27h3.51V12.42h3.11V9.27H70zM0 32h105V0H0zM1.6 1.6h101.8v28.8H1.6z"
    fill="currentColor" />
</svg>