<svg width="32" height="32" fill="none" xmlns="http://www.w3.org/2000/svg">
  <path fill="#fff" d="M0 0h32v32H0z" />
  <path fill-rule="evenodd" clip-rule="evenodd"
    d="M32 0v32H0V0h32zm-1.545 1.6H1.545v28.8h28.91V1.6zM16 8.74c4.42 0 7.34 3.18 7.34 7.24 0 1.46-.38 2.8-1.04 3.92l1.24 1.08-2.02 2.34-1.36-1.2c-1.14.72-2.56 1.14-4.16 1.14-4.42 0-7.34-3.16-7.34-7.28 0-4.06 2.92-7.24 7.34-7.24zm0 3.2c-2.24 0-3.78 1.74-3.78 4.04 0 2.36 1.56 4.08 3.78 4.08.54 0 1.06-.1 1.5-.3l-1.16-1.02 1.98-2.32 1.22 1.06c.14-.46.24-.96.24-1.5 0-2.3-1.54-4.04-3.78-4.04z"
    fill="currentColor" />
</svg>